<svg class="animated" id="freepik_stories-horror-video-game" xmlns="http://www.w3.org/2000/svg" viewBox="0 0 500 500" version="1.1" xmlns:xlink="http://www.w3.org/1999/xlink" xmlns:svgjs="http://svgjs.com/svgjs"><style>svg#freepik_stories-horror-video-game:not(.animated) .animable {opacity: 0;}svg#freepik_stories-horror-video-game.animated #freepik--device-1--inject-66 {animation: 1.5s Infinite  linear heartbeat;animation-delay: 0s;}svg#freepik_stories-horror-video-game.animated #freepik--Character--inject-66 {animation: 1.5s Infinite  linear floating;animation-delay: 0s;}svg#freepik_stories-horror-video-game.animated #freepik--Chair--inject-66 {animation: 1.5s Infinite  linear shake;animation-delay: 0s;}            @keyframes heartbeat {                0% {                    transform: scale(1);                }                10% {                    transform: scale(1.1);                }                30% {                    transform: scale(1);                }                40% {                    transform: scale(1);                }                50% {                    transform: scale(1.1);                }                60% {                    transform: scale(1);                }                100% {                    transform: scale(1);                }            }                    @keyframes floating {                0% {                    opacity: 1;                    transform: translateY(0px);                }                50% {                    transform: translateY(-10px);                }                100% {                    opacity: 1;                    transform: translateY(0px);                }            }                    @keyframes shake {                10%, 90% {                    transform: translate3d(-1px, 0, 0);                  }                  20%, 80% {                    transform: translate3d(2px, 0, 0);                  }                  30%, 50%, 70% {                    transform: translate3d(-4px, 0, 0);                  }                  40%, 60% {                    transform: translate3d(4px, 0, 0);                  }            }        </style><g id="freepik--background-complete--inject-66" class="animable" style="transform-origin: 250px 228.23px;"><rect x="416.78" y="398.49" width="33.12" height="0.25" style="fill: rgb(235, 235, 235); transform-origin: 433.34px 398.615px;" id="elks9kvj3dd9r" class="animable"></rect><rect x="322.53" y="401.21" width="8.69" height="0.25" style="fill: rgb(235, 235, 235); transform-origin: 326.875px 401.335px;" id="el066hsxk38tj7" class="animable"></rect><rect x="396.59" y="389.21" width="19.19" height="0.25" style="fill: rgb(235, 235, 235); transform-origin: 406.185px 389.335px;" id="elq6g9fuqk6sm" class="animable"></rect><rect x="52.46" y="390.89" width="43.19" height="0.25" style="fill: rgb(235, 235, 235); transform-origin: 74.055px 391.015px;" id="el3flnll366nc" class="animable"></rect><rect x="104.56" y="390.89" width="6.33" height="0.25" style="fill: rgb(235, 235, 235); transform-origin: 107.725px 391.015px;" id="elna4apiufnps" class="animable"></rect><rect x="131.47" y="395.11" width="93.68" height="0.25" style="fill: rgb(235, 235, 235); transform-origin: 178.31px 395.235px;" id="elkzt7f7oav1k" class="animable"></rect><path d="M237,337.8H43.92a5.71,5.71,0,0,1-5.71-5.71V60.66A5.71,5.71,0,0,1,43.92,55H237a5.71,5.71,0,0,1,5.71,5.71V332.09A5.71,5.71,0,0,1,237,337.8ZM43.92,55.2a5.47,5.47,0,0,0-5.46,5.46V332.09a5.47,5.47,0,0,0,5.46,5.46H237a5.47,5.47,0,0,0,5.46-5.46V60.66A5.47,5.47,0,0,0,237,55.2Z" style="fill: rgb(235, 235, 235); transform-origin: 140.46px 196.4px;" id="elgtw7wqz4bin" class="animable"></path><path d="M453.31,337.8H260.21a5.72,5.72,0,0,1-5.71-5.71V60.66A5.72,5.72,0,0,1,260.21,55h193.1A5.71,5.71,0,0,1,459,60.66V332.09A5.71,5.71,0,0,1,453.31,337.8ZM260.21,55.2a5.47,5.47,0,0,0-5.46,5.46V332.09a5.47,5.47,0,0,0,5.46,5.46h193.1a5.47,5.47,0,0,0,5.46-5.46V60.66a5.47,5.47,0,0,0-5.46-5.46Z" style="fill: rgb(235, 235, 235); transform-origin: 356.75px 196.4px;" id="elvuqc0dc807t" class="animable"></path><rect y="382.4" width="500" height="0.25" style="fill: rgb(235, 235, 235); transform-origin: 250px 382.525px;" id="elyeisgir08xm" class="animable"></rect><rect x="85.21" y="85.09" width="106.23" height="228.03" style="fill: rgb(235, 235, 235); transform-origin: 138.325px 199.105px;" id="elovccvnd9ei" class="animable"></rect><rect x="91.59" y="91.48" width="93.46" height="215.26" style="fill: rgb(240, 240, 240); transform-origin: 138.32px 199.11px;" id="el1kokpspez8u" class="animable"></rect><polygon points="148.37 306.74 120.27 306.74 93.9 91.48 121.99 91.48 148.37 306.74" style="fill: rgb(250, 250, 250); transform-origin: 121.135px 199.11px;" id="elzqavh8p1vp" class="animable"></polygon><polygon points="135.04 91.48 161.42 306.74 154.61 306.74 128.24 91.48 135.04 91.48" style="fill: rgb(250, 250, 250); transform-origin: 144.83px 199.11px;" id="eltass2571qqf" class="animable"></polygon><polygon points="83.86 90.42 192.78 90.42 195.08 85.05 81.56 85.05 83.86 90.42" style="fill: rgb(245, 245, 245); transform-origin: 138.32px 87.735px;" id="elcg2416mnt3v" class="animable"></polygon><polygon points="83.86 93.52 192.78 93.52 195.08 88.16 81.56 88.16 83.86 93.52" style="fill: rgb(240, 240, 240); transform-origin: 138.32px 90.84px;" id="elqd6cvmup3vh" class="animable"></polygon><polygon points="83.86 96.63 192.78 96.63 195.08 91.27 81.56 91.27 83.86 96.63" style="fill: rgb(230, 230, 230); transform-origin: 138.32px 93.95px;" id="el5m2b46fdgnb" class="animable"></polygon><polygon points="83.86 99.74 192.78 99.74 195.08 94.37 81.56 94.37 83.86 99.74" style="fill: rgb(224, 224, 224); transform-origin: 138.32px 97.055px;" id="elp7nakjtrv7" class="animable"></polygon><g id="elctwbbx308ie"><rect x="77.6" y="78.34" width="121.44" height="7.15" style="fill: rgb(224, 224, 224); transform-origin: 138.32px 81.915px; transform: rotate(180deg);" class="animable" id="elaljpxqxbsmb"></rect></g><path d="M197.79,150.32h0a1.23,1.23,0,0,0,1.24-1.23V107.38a1.24,1.24,0,0,0-1.24-1.24h0a1.24,1.24,0,0,0-1.23,1.24v41.71A1.23,1.23,0,0,0,197.79,150.32Z" style="fill: rgb(224, 224, 224); transform-origin: 197.795px 128.23px;" id="ele8opx2z9zvv" class="animable"></path><g id="elcs6c4pqpuzv"><rect x="197.35" y="84.05" width="0.89" height="24.77" style="fill: rgb(224, 224, 224); transform-origin: 197.795px 96.435px; transform: rotate(180deg);" class="animable" id="els1xhxiw6cfn"></rect></g><path d="M154.4,122.21h-.09a14.72,14.72,0,0,1-10.79,27.25,15.8,15.8,0,1,0,10.88-27.25Z" style="fill: rgb(255, 255, 255); transform-origin: 156.864px 138.01px;" id="elda9aykpay" class="animable"></path><rect x="303.81" y="126.39" width="107.89" height="256.08" style="fill: rgb(235, 235, 235); transform-origin: 357.755px 254.43px;" id="elu4k9wg6p5er" class="animable"></rect><rect x="308.4" y="131.07" width="98.72" height="251.45" style="fill: rgb(245, 245, 245); transform-origin: 357.76px 256.795px;" id="elueatmskfo6" class="animable"></rect><rect x="315.87" y="141.26" width="39.57" height="106.06" style="fill: rgb(250, 250, 250); transform-origin: 335.655px 194.29px;" id="elzxnfr6rxg8" class="animable"></rect><rect x="360.6" y="141.26" width="39.57" height="106.06" style="fill: rgb(250, 250, 250); transform-origin: 380.385px 194.29px;" id="elmh307cwufug" class="animable"></rect><rect x="315.87" y="284.13" width="84.3" height="92.09" style="fill: rgb(250, 250, 250); transform-origin: 358.02px 330.175px;" id="elcd6hkqmyqom" class="animable"></rect><rect x="317.13" y="253.05" width="9.34" height="24.34" style="fill: rgb(235, 235, 235); transform-origin: 321.8px 265.22px;" id="el8qwz43jzrmc" class="animable"></rect><g id="elsgtqqu36uc"><rect x="326.47" y="253.05" width="1.84" height="24.34" style="fill: rgb(224, 224, 224); transform-origin: 327.39px 265.22px; transform: rotate(180deg);" class="animable" id="el8l6c9pvnwuq"></rect></g><path d="M323.39,262.62a3.94,3.94,0,1,1-3.94-3.94A3.95,3.95,0,0,1,323.39,262.62Z" style="fill: rgb(224, 224, 224); transform-origin: 319.45px 262.62px;" id="elorx1lfdqpte" class="animable"></path><rect x="320.61" y="269.43" width="2.03" height="4.93" style="fill: rgb(224, 224, 224); transform-origin: 321.625px 271.895px;" id="elvbeghf0nnb" class="animable"></rect><path d="M332.22,262.62c0,1.33-11.63,2.42-13,2.42a2.42,2.42,0,1,1,0-4.84C320.59,260.2,332.22,261.28,332.22,262.62Z" style="fill: rgb(240, 240, 240); transform-origin: 324.51px 262.62px;" id="elnwgj4309bw9" class="animable"></path></g><g id="freepik--Shadow--inject-66" class="animable" style="transform-origin: 245.18px 412.39px;"><ellipse id="freepik--path--inject-66" cx="245.18" cy="412.39" rx="193.89" ry="11.32" style="fill: rgb(245, 245, 245); transform-origin: 245.18px 412.39px;" class="animable"></ellipse></g><g id="freepik--Furniture--inject-66" class="animable" style="transform-origin: 171.38px 369.965px;"><polygon points="104.91 406.77 98.91 406.77 97.91 389.42 105.91 389.42 104.91 406.77" style="fill: #BA68C8; transform-origin: 101.91px 398.095px;" id="elmkm6lc6gg3d" class="animable"></polygon><g id="el2q79d4gf51c"><polygon points="104.91 406.77 98.91 406.77 97.91 389.42 105.91 389.42 104.91 406.77" style="fill: rgb(255, 255, 255); opacity: 0.5; transform-origin: 101.91px 398.095px;" class="animable" id="elidcnt6zofh"></polygon></g><polygon points="83.03 406.77 77.03 406.77 76.03 389.42 84.03 389.42 83.03 406.77" style="fill: #BA68C8; transform-origin: 80.03px 398.095px;" id="elwjllfd6xxb8" class="animable"></polygon><g id="el45kb05ri3gy"><polygon points="83.03 406.77 77.03 406.77 76.03 389.42 84.03 389.42 83.03 406.77" style="fill: rgb(255, 255, 255); opacity: 0.5; transform-origin: 80.03px 398.095px;" class="animable" id="elqo4fn2nynym"></polygon></g><polygon points="264.3 406.77 258.3 406.77 257.3 389.42 265.3 389.42 264.3 406.77" style="fill: #BA68C8; transform-origin: 261.3px 398.095px;" id="elu143qcr9qfs" class="animable"></polygon><g id="elcjri2i9748"><polygon points="264.3 406.77 258.3 406.77 257.3 389.42 265.3 389.42 264.3 406.77" style="fill: rgb(255, 255, 255); opacity: 0.5; transform-origin: 261.3px 398.095px;" class="animable" id="el4ks0hh9a7ve"></polygon></g><polygon points="242.41 406.77 236.41 406.77 235.41 389.42 243.41 389.42 242.41 406.77" style="fill: #BA68C8; transform-origin: 239.41px 398.095px;" id="el690o8pepf15" class="animable"></polygon><g id="el1fw5cp6gvnl"><polygon points="242.41 406.77 236.41 406.77 235.41 389.42 243.41 389.42 242.41 406.77" style="fill: rgb(255, 255, 255); opacity: 0.5; transform-origin: 239.41px 398.095px;" class="animable" id="eldhs9frq1075"></polygon></g><rect x="72.76" y="333.16" width="22.52" height="57.79" style="fill: #BA68C8; transform-origin: 84.02px 362.055px;" id="el6v7irq6fkh" class="animable"></rect><g id="elhwogef6fto5"><rect x="72.76" y="333.16" width="22.52" height="57.79" style="fill: rgb(255, 255, 255); opacity: 0.5; transform-origin: 84.02px 362.055px;" class="animable" id="elfzqdkqylerp"></rect></g><rect x="244.9" y="334.68" width="22.52" height="54.74" style="fill: #BA68C8; transform-origin: 256.16px 362.05px;" id="eljuwu5qrghsp" class="animable"></rect><g id="elzs25lpl9k8o"><rect x="244.9" y="334.68" width="22.52" height="54.74" style="fill: rgb(255, 255, 255); opacity: 0.5; transform-origin: 256.16px 362.05px;" class="animable" id="el5uvn95ape8p"></rect></g><path d="M270,391H92.74V333.16H270ZM99.6,384.09H263.17V340H99.6Z" style="fill: #BA68C8; transform-origin: 181.37px 362.08px;" id="el1clmxqvpzxy" class="animable"></path><g id="elwretsy4jwf"><g style="opacity: 0.7; transform-origin: 181.37px 362.08px;" class="animable" id="eliljbupvhe2l"><path d="M270,391H92.74V333.16H270ZM99.6,384.09H263.17V340H99.6Z" style="fill: rgb(255, 255, 255); transform-origin: 181.37px 362.08px;" id="elmxqikamgdi" class="animable"></path></g></g></g><g id="freepik--device-2--inject-66" class="animable" style="transform-origin: 151.32px 373.07px;"><rect x="113.07" y="380.22" width="79.41" height="3.87" style="fill: rgb(38, 50, 56); transform-origin: 152.775px 382.155px;" id="el2gohhye5cnx" class="animable"></rect><g id="eloq28926kexn"><rect x="113.07" y="380.22" width="79.41" height="3.87" style="fill: rgb(255, 255, 255); opacity: 0.2; transform-origin: 152.775px 382.155px;" class="animable" id="el0u8cbl7i823j"></rect></g><rect x="106.35" y="362.05" width="33.08" height="18.16" style="fill: rgb(38, 50, 56); transform-origin: 122.89px 371.13px;" id="eltadjapc6wm" class="animable"></rect><g id="el8ldg2lclx3"><rect x="106.35" y="362.05" width="33.08" height="18.16" style="fill: rgb(255, 255, 255); opacity: 0.3; transform-origin: 122.89px 371.13px;" class="animable" id="el93hq0udsz4"></rect></g><rect x="130.13" y="362.05" width="66.16" height="18.16" style="fill: rgb(38, 50, 56); transform-origin: 163.21px 371.13px;" id="elask5p16qyy5" class="animable"></rect><g id="el0opzttu6s3bb"><rect x="130.13" y="362.05" width="66.16" height="18.16" style="fill: rgb(255, 255, 255); opacity: 0.7; transform-origin: 163.21px 371.13px;" class="animable" id="el7cq1bfi6i17"></rect></g><rect x="130.13" y="369.04" width="33.08" height="4.18" style="fill: rgb(38, 50, 56); transform-origin: 146.67px 371.13px;" id="elsffuw65ua3" class="animable"></rect><g id="elvgvmdggcjjm"><g style="opacity: 0.5; transform-origin: 179.265px 371.925px;" class="animable" id="el670hus6f3bs"><path d="M167.74,365.83a.84.84,0,1,1-.84-.83A.84.84,0,0,1,167.74,365.83Z" style="fill: rgb(255, 255, 255); transform-origin: 166.9px 365.84px;" id="elopmdqb7u5i" class="animable"></path><path d="M172.68,365.83a.83.83,0,1,1-.83-.83A.83.83,0,0,1,172.68,365.83Z" style="fill: rgb(255, 255, 255); transform-origin: 171.85px 365.83px;" id="elh71hof7x84t" class="animable"></path><path d="M177.63,365.83a.83.83,0,1,1-.83-.83A.83.83,0,0,1,177.63,365.83Z" style="fill: rgb(255, 255, 255); transform-origin: 176.8px 365.83px;" id="elwmgdz1t20o" class="animable"></path><path d="M182.58,365.83a.83.83,0,1,1-.83-.83A.83.83,0,0,1,182.58,365.83Z" style="fill: rgb(255, 255, 255); transform-origin: 181.75px 365.83px;" id="eluzkfb34ix3h" class="animable"></path><path d="M187.53,365.83a.84.84,0,1,1-.83-.83A.83.83,0,0,1,187.53,365.83Z" style="fill: rgb(255, 255, 255); transform-origin: 186.69px 365.84px;" id="elc03gw6xnnx8" class="animable"></path><path d="M192.47,365.83a.83.83,0,1,1-.83-.83A.83.83,0,0,1,192.47,365.83Z" style="fill: rgb(255, 255, 255); transform-origin: 191.64px 365.83px;" id="el6yeprur8rf" class="animable"></path><path d="M167.74,369.88a.84.84,0,1,1-.84-.84A.84.84,0,0,1,167.74,369.88Z" style="fill: rgb(255, 255, 255); transform-origin: 166.9px 369.88px;" id="el826p8vata7j" class="animable"></path><path d="M172.68,369.88a.83.83,0,1,1-.83-.84A.83.83,0,0,1,172.68,369.88Z" style="fill: rgb(255, 255, 255); transform-origin: 171.85px 369.87px;" id="eltc4uy9kgy2n" class="animable"></path><path d="M177.63,369.88a.83.83,0,1,1-.83-.84A.83.83,0,0,1,177.63,369.88Z" style="fill: rgb(255, 255, 255); transform-origin: 176.8px 369.87px;" id="elxs5ob8xpg6s" class="animable"></path><path d="M182.58,369.88a.83.83,0,1,1-.83-.84A.83.83,0,0,1,182.58,369.88Z" style="fill: rgb(255, 255, 255); transform-origin: 181.75px 369.87px;" id="el4k1slhlhyia" class="animable"></path><circle cx="186.7" cy="369.88" r="0.83" style="fill: rgb(255, 255, 255); transform-origin: 186.7px 369.88px;" id="elrgubflvj2vj" class="animable"></circle><path d="M192.47,369.88a.83.83,0,1,1-.83-.84A.83.83,0,0,1,192.47,369.88Z" style="fill: rgb(255, 255, 255); transform-origin: 191.64px 369.87px;" id="elnfazxrnenng" class="animable"></path><path d="M167.74,373.92a.84.84,0,1,1-.84-.83A.84.84,0,0,1,167.74,373.92Z" style="fill: rgb(255, 255, 255); transform-origin: 166.9px 373.93px;" id="el4pd27s38sli" class="animable"></path><path d="M172.68,373.92a.83.83,0,1,1-.83-.83A.83.83,0,0,1,172.68,373.92Z" style="fill: rgb(255, 255, 255); transform-origin: 171.85px 373.92px;" id="elx2lmf4045pa" class="animable"></path><path d="M177.63,373.92a.83.83,0,1,1-.83-.83A.83.83,0,0,1,177.63,373.92Z" style="fill: rgb(255, 255, 255); transform-origin: 176.8px 373.92px;" id="eln8hlt1mjgfj" class="animable"></path><path d="M182.58,373.92a.83.83,0,1,1-.83-.83A.83.83,0,0,1,182.58,373.92Z" style="fill: rgb(255, 255, 255); transform-origin: 181.75px 373.92px;" id="elz5ja7o6hblc" class="animable"></path><circle cx="186.7" cy="373.92" r="0.83" style="fill: rgb(255, 255, 255); transform-origin: 186.7px 373.92px;" id="el3q2u1idkste" class="animable"></circle><path d="M192.47,373.92a.83.83,0,1,1-.83-.83A.83.83,0,0,1,192.47,373.92Z" style="fill: rgb(255, 255, 255); transform-origin: 191.64px 373.92px;" id="elurant6zkdyg" class="animable"></path><path d="M167.74,378a.84.84,0,1,1-.84-.83A.84.84,0,0,1,167.74,378Z" style="fill: rgb(255, 255, 255); transform-origin: 166.9px 378.01px;" id="el4qzybuzckqt" class="animable"></path><path d="M172.68,378a.83.83,0,1,1-.83-.83A.83.83,0,0,1,172.68,378Z" style="fill: rgb(255, 255, 255); transform-origin: 171.85px 378px;" id="el7opv8xnbhb7" class="animable"></path><path d="M177.63,378a.83.83,0,1,1-.83-.83A.83.83,0,0,1,177.63,378Z" style="fill: rgb(255, 255, 255); transform-origin: 176.8px 378px;" id="elrni5x7w91to" class="animable"></path><path d="M182.58,378a.83.83,0,1,1-.83-.83A.83.83,0,0,1,182.58,378Z" style="fill: rgb(255, 255, 255); transform-origin: 181.75px 378px;" id="eluzb6bex2fb" class="animable"></path><path d="M187.53,378a.84.84,0,1,1-.83-.83A.83.83,0,0,1,187.53,378Z" style="fill: rgb(255, 255, 255); transform-origin: 186.69px 378.01px;" id="elxmudpv72mx" class="animable"></path><path d="M192.47,378a.83.83,0,1,1-.83-.83A.83.83,0,0,1,192.47,378Z" style="fill: rgb(255, 255, 255); transform-origin: 191.64px 378px;" id="elux1trckw4u" class="animable"></path></g></g></g><g id="freepik--device-1--inject-66" class="animable" style="transform-origin: 171.375px 265.615px;"><g id="elyzsb83qtow"><path d="M61,198h.71a1.3,1.3,0,0,1,1.3,1.3v128a1.3,1.3,0,0,1-1.3,1.3H61a0,0,0,0,1,0,0V198A0,0,0,0,1,61,198Z" style="fill: rgb(38, 50, 56); transform-origin: 62.005px 263.3px; transform: rotate(180deg);" class="animable" id="el7fsrvuki1vw"></path></g><rect x="63.05" y="197.99" width="218.7" height="130.57" style="fill: rgb(38, 50, 56); transform-origin: 172.4px 263.275px;" id="ele2d9ffd4e24" class="animable"></rect><g id="elka4q9hxka4l"><rect x="63.05" y="197.99" width="218.7" height="130.57" style="fill: rgb(255, 255, 255); opacity: 0.5; transform-origin: 172.4px 263.275px;" class="animable" id="el0sbv16trfys"></rect></g><g id="elfxy7nw7qneh"><rect x="66.65" y="201.59" width="211.5" height="123.37" style="fill: #BA68C8; transform-origin: 172.4px 263.275px; transform: rotate(180deg);" class="animable" id="el17vlkyzljrm"></rect></g><g id="elno8flbh717"><rect x="66.65" y="201.59" width="211.5" height="123.37" style="opacity: 0.3; transform-origin: 172.4px 263.275px; transform: rotate(180deg);" class="animable" id="els6nkwjwjuy"></rect></g><path d="M144.69,328.56v4.68h-6.5a2.9,2.9,0,0,1-2.9-2.9v-1.78Z" style="fill: rgb(38, 50, 56); transform-origin: 139.99px 330.9px;" id="ely82fzc9zhys" class="animable"></path><g id="elfaewlkr3xie"><path d="M142.59,328.56h61.69a3.22,3.22,0,0,1,3.22,3.22v1.46a0,0,0,0,1,0,0H139.37a0,0,0,0,1,0,0v-1.46A3.22,3.22,0,0,1,142.59,328.56Z" style="fill: rgb(38, 50, 56); transform-origin: 173.435px 330.9px; transform: rotate(180deg);" class="animable" id="elg9sit4zwnid"></path></g><g id="elpbpc3ij1w6n"><path d="M142.59,328.56h61.69a3.22,3.22,0,0,1,3.22,3.22v1.46a0,0,0,0,1,0,0H139.37a0,0,0,0,1,0,0v-1.46A3.22,3.22,0,0,1,142.59,328.56Z" style="fill: rgb(255, 255, 255); opacity: 0.2; transform-origin: 173.435px 330.9px; transform: rotate(180deg);" class="animable" id="eltblioinykkk"></path></g><path d="M82.7,256.84,91.85,295a1.7,1.7,0,0,0,2.05,1.26l7.83-1.88a1.71,1.71,0,0,0,1.26-2.06l-4-16.82a12.56,12.56,0,0,1,8.76-15.14,12.26,12.26,0,0,1,15,9l4.13,17.22a1.7,1.7,0,0,0,2.06,1.26l7.83-1.88a1.7,1.7,0,0,0,1.26-2.05l-9.15-38.14a2.9,2.9,0,0,0-3.5-2.15l-40.5,9.71A2.9,2.9,0,0,0,82.7,256.84Z" style="fill: rgb(38, 50, 56); transform-origin: 110.348px 269.923px;" id="elux9d341yzad" class="animable"></path><g id="el21y5rp0tdnj"><path d="M82.7,256.84,91.85,295a1.7,1.7,0,0,0,2.05,1.26l7.83-1.88a1.71,1.71,0,0,0,1.26-2.06l-4-16.82a12.56,12.56,0,0,1,8.76-15.14,12.26,12.26,0,0,1,15,9l4.13,17.22a1.7,1.7,0,0,0,2.06,1.26l7.83-1.88a1.7,1.7,0,0,0,1.26-2.05l-9.15-38.14a2.9,2.9,0,0,0-3.5-2.15l-40.5,9.71A2.9,2.9,0,0,0,82.7,256.84Z" style="fill: rgb(255, 255, 255); opacity: 0.2; transform-origin: 110.348px 269.923px;" class="animable" id="el84yhqv5eqdl"></path></g><g id="elc9ry242722k"><g style="opacity: 0.9; transform-origin: 109.635px 269.96px;" class="animable" id="el8w87uqueoql"><g id="el12r7bnzetrxp"><rect x="86.85" y="265.98" width="9.17" height="3.83" rx="1" style="fill: rgb(255, 255, 255); opacity: 0.7; transform-origin: 91.435px 267.895px; transform: rotate(-13.48deg);" class="animable" id="ele7p3u95u94d"></rect></g><g id="el1da1avezvyc"><rect x="122.54" y="262.56" width="9.17" height="3.83" rx="1" style="fill: rgb(255, 255, 255); opacity: 0.5; transform-origin: 127.125px 264.475px; transform: rotate(-13.48deg);" class="animable" id="elk0tytrsmwyf"></rect></g><g id="elhtt6n2tgxok"><rect x="89.31" y="276.52" width="8.16" height="3.41" rx="1" style="fill: rgb(255, 255, 255); opacity: 0.7; transform-origin: 93.39px 278.225px; transform: rotate(-13.48deg);" class="animable" id="elvascp6jlon"></rect></g><g id="elu8urj9c0esg"><rect x="91.68" y="259.68" width="9.17" height="3.83" rx="1" style="fill: rgb(255, 255, 255); opacity: 0.5; transform-origin: 96.265px 261.595px; transform: rotate(-13.48deg);" class="animable" id="el8zspsh4jv8v"></rect></g><g id="elheeo02gg33r"><rect x="85.25" y="261.65" width="5.58" height="3.83" rx="1" style="fill: rgb(255, 255, 255); opacity: 0.5; transform-origin: 88.04px 263.565px; transform: rotate(-13.48deg);" class="animable" id="elejv2ney7dyt"></rect></g><g id="elqomes6j1dzp"><rect x="101.01" y="252.3" width="9.17" height="3.83" rx="1" style="fill: rgb(255, 255, 255); opacity: 0.7; transform-origin: 105.595px 254.215px; transform: rotate(-13.48deg);" class="animable" id="elo98c7vn9v19"></rect></g><g id="elwmg2y4zneyf"><rect x="84.52" y="256.25" width="9.17" height="3.83" rx="1" style="fill: rgb(255, 255, 255); opacity: 0.8; transform-origin: 89.105px 258.165px; transform: rotate(-13.48deg);" class="animable" id="elmim66md28hl"></rect></g><g id="elwnxp1dtl0y9"><rect x="94.57" y="254.27" width="5.58" height="3.83" rx="1" style="fill: rgb(255, 255, 255); opacity: 0.5; transform-origin: 97.36px 256.185px; transform: rotate(-13.48deg);" class="animable" id="ely49le31ibb"></rect></g><g id="el4yu6ujqmnze"><rect x="119.63" y="258.12" width="9.17" height="3.83" rx="1" style="fill: rgb(255, 255, 255); opacity: 0.7; transform-origin: 124.215px 260.035px; transform: rotate(166.52deg);" class="animable" id="ell3xzsabaom"></rect></g><g id="el61c3gnpno0p"><rect x="116.37" y="249.04" width="5.58" height="3.83" rx="1" style="fill: rgb(255, 255, 255); opacity: 0.5; transform-origin: 119.16px 250.955px; transform: rotate(166.51deg);" class="animable" id="elhhsm0asrskf"></rect></g><g id="el12kezhgnxkfn"><rect x="129.12" y="272.73" width="5.58" height="3.83" rx="1" style="fill: rgb(255, 255, 255); opacity: 0.7; transform-origin: 131.91px 274.645px; transform: rotate(166.52deg);" class="animable" id="elhcxksml0d89"></rect></g><g id="ele6dz3tydnvp"><rect x="119.64" y="252.97" width="9.17" height="3.83" rx="1" style="fill: rgb(255, 255, 255); opacity: 0.5; transform-origin: 124.225px 254.885px; transform: rotate(-13.48deg);" class="animable" id="eltur1k5322sg"></rect></g><g id="elpbvroxrwmeq"><rect x="113.2" y="254.95" width="5.58" height="3.83" rx="1" style="fill: rgb(255, 255, 255); opacity: 0.7; transform-origin: 115.99px 256.865px; transform: rotate(-13.48deg);" class="animable" id="elhdmw2qbfry"></rect></g><g id="ell0dvvutcddh"><rect x="87.58" y="271.37" width="5.58" height="3.83" rx="1" style="fill: rgb(255, 255, 255); opacity: 0.5; transform-origin: 90.37px 273.285px; transform: rotate(-13.49deg);" class="animable" id="el72h4wbpnkz8"></rect></g><g id="el934bfqcjobl"><rect x="94.31" y="270.12" width="2.58" height="3.83" rx="1" style="fill: rgb(255, 255, 255); opacity: 0.5; transform-origin: 95.6px 272.035px; transform: rotate(-13.49deg);" class="animable" id="elj6w38vxuls"></rect></g><g id="elsherhudcvy"><rect x="123.87" y="268.33" width="5.58" height="3.83" rx="1" style="fill: rgb(255, 255, 255); opacity: 0.8; transform-origin: 126.66px 270.245px; transform: rotate(-13.48deg);" class="animable" id="elq1kuosegq8o"></rect></g><g id="el45zt64enf5c"><rect x="130.6" y="267.08" width="2.58" height="3.83" rx="1" style="fill: rgb(255, 255, 255); opacity: 0.5; transform-origin: 131.89px 268.995px; transform: rotate(-13.49deg);" class="animable" id="elybwaasgax7"></rect></g><g id="el0ryzg9h2xina"><rect x="93.95" y="287.4" width="2.58" height="3.83" rx="1" style="fill: rgb(255, 255, 255); opacity: 0.7; transform-origin: 95.24px 289.315px; transform: rotate(-13.48deg);" class="animable" id="el1ub1rth8y5"></rect></g><g id="el64xylkuzowo"><rect x="94.74" y="280.97" width="5.58" height="3.83" rx="1" style="fill: rgb(255, 255, 255); opacity: 0.8; transform-origin: 97.53px 282.885px; transform: rotate(166.52deg);" class="animable" id="el1d570uj8xpj"></rect></g><g id="eltlky6scec4b"><rect x="91.01" y="282.23" width="2.58" height="3.83" rx="1" style="fill: rgb(255, 255, 255); opacity: 0.5; transform-origin: 92.3px 284.145px; transform: rotate(166.51deg);" class="animable" id="el65uibfxgabk"></rect></g></g></g><path d="M214.1,246.63,205.94,285a1.7,1.7,0,0,0,1.31,2l7.87,1.68a1.7,1.7,0,0,0,2-1.31l3.6-16.93a12.55,12.55,0,0,1,14.42-9.9,12.27,12.27,0,0,1,9.67,14.61l-3.68,17.32a1.7,1.7,0,0,0,1.31,2l7.88,1.68a1.71,1.71,0,0,0,2-1.31l8.16-38.37a2.92,2.92,0,0,0-2.24-3.45l-40.74-8.66A2.89,2.89,0,0,0,214.1,246.63Z" style="fill: rgb(38, 50, 56); transform-origin: 233.224px 270.243px;" id="elvnsf27zqpmr" class="animable"></path><g id="eltirlaqv18ze"><path d="M214.1,246.63,205.94,285a1.7,1.7,0,0,0,1.31,2l7.87,1.68a1.7,1.7,0,0,0,2-1.31l3.6-16.93a12.55,12.55,0,0,1,14.42-9.9,12.27,12.27,0,0,1,9.67,14.61l-3.68,17.32a1.7,1.7,0,0,0,1.31,2l7.88,1.68a1.71,1.71,0,0,0,2-1.31l8.16-38.37a2.92,2.92,0,0,0-2.24-3.45l-40.74-8.66A2.89,2.89,0,0,0,214.1,246.63Z" style="fill: rgb(255, 255, 255); opacity: 0.2; transform-origin: 233.224px 270.243px;" class="animable" id="elzgzg6fcr74"></path></g><g id="el2peyf88r35d"><g style="opacity: 0.9; transform-origin: 233.329px 267.048px;" class="animable" id="elhkkml0bgs9j"><g id="el02cm6rdmsusc"><rect x="212.64" y="258.45" width="9.17" height="3.83" rx="1" style="fill: rgb(255, 255, 255); opacity: 0.7; transform-origin: 217.225px 260.365px; transform: rotate(12.01deg);" class="animable" id="elpi67ylm8ibq"></rect></g><g id="elvoust5vkg8o"><rect x="246.32" y="270.73" width="9.17" height="3.83" rx="1" style="fill: rgb(255, 255, 255); opacity: 0.5; transform-origin: 250.905px 272.645px; transform: rotate(12.01deg);" class="animable" id="el4aa0a4cxwpx"></rect></g><g id="elc20pykso0t"><rect x="210.47" y="268.83" width="8.16" height="3.41" rx="1" style="fill: rgb(255, 255, 255); opacity: 0.7; transform-origin: 214.55px 270.535px; transform: rotate(12.01deg);" class="animable" id="elxo6hj4yajf"></rect></g><g id="elft1cbxmo4l4"><rect x="219.71" y="254.85" width="9.17" height="3.83" rx="1" style="fill: rgb(255, 255, 255); opacity: 0.5; transform-origin: 224.295px 256.765px; transform: rotate(12.01deg);" class="animable" id="elzx5eg17kr4"></rect></g><g id="elc3rq9nnlill"><rect x="213.23" y="253.09" width="5.58" height="3.83" rx="1" style="fill: rgb(255, 255, 255); opacity: 0.5; transform-origin: 216.02px 255.005px; transform: rotate(12.01deg);" class="animable" id="elblwjwx81eg"></rect></g><g id="el6labut4rdc"><rect x="231.31" y="252.2" width="9.17" height="3.83" rx="1" style="fill: rgb(255, 255, 255); opacity: 0.7; transform-origin: 235.895px 254.115px; transform: rotate(12.01deg);" class="animable" id="elga3wwladvpe"></rect></g><g id="eln695tpow24r"><rect x="214.72" y="248.67" width="9.17" height="3.83" rx="1" style="fill: rgb(255, 255, 255); opacity: 0.8; transform-origin: 219.305px 250.585px; transform: rotate(12.01deg);" class="animable" id="elkvs51j9aa6j"></rect></g><g id="eltldwkoevaj"><rect x="224.83" y="250.44" width="5.59" height="3.83" rx="1" style="fill: rgb(255, 255, 255); opacity: 0.5; transform-origin: 227.625px 252.355px; transform: rotate(12.01deg);" class="animable" id="elovpacbfv0u8"></rect></g><g id="elakjew5jarx"><rect x="245.61" y="265.47" width="9.17" height="3.83" rx="1" style="fill: rgb(255, 255, 255); opacity: 0.7; transform-origin: 250.195px 267.385px; transform: rotate(-167.99deg);" class="animable" id="el5u4xko2r9cx"></rect></g><g id="el4lnxav6sujt"><rect x="246.75" y="255.1" width="5.58" height="3.83" rx="1" style="fill: rgb(255, 255, 255); opacity: 0.5; transform-origin: 249.54px 257.015px; transform: rotate(-167.99deg);" class="animable" id="elnk14n2be43n"></rect></g><g id="elab2ofqo2eri"><rect x="248.07" y="281.97" width="5.58" height="3.83" rx="1" style="fill: rgb(255, 255, 255); opacity: 0.7; transform-origin: 250.86px 283.885px; transform: rotate(-167.99deg);" class="animable" id="elqzudlzk66us"></rect></g><g id="eltnkyglu35xe"><rect x="247.83" y="260.83" width="9.17" height="3.83" rx="1" style="fill: rgb(255, 255, 255); opacity: 0.5; transform-origin: 252.415px 262.745px; transform: rotate(12.01deg);" class="animable" id="elm42dxq5dbxn"></rect></g><g id="elwe25k7bgmda"><rect x="241.35" y="259.07" width="5.58" height="3.83" rx="1" style="fill: rgb(255, 255, 255); opacity: 0.7; transform-origin: 244.14px 260.985px; transform: rotate(12.01deg);" class="animable" id="elvrqi6mrlm5"></rect></g><g id="eldjm2mh30tc"><rect x="211.15" y="262.87" width="5.58" height="3.83" rx="1" style="fill: rgb(255, 255, 255); opacity: 0.5; transform-origin: 213.94px 264.785px; transform: rotate(12.01deg);" class="animable" id="elligqu3e2u4"></rect></g><g id="elpj1t8pyuawn"><rect x="217.91" y="263.98" width="2.58" height="3.83" rx="1" style="fill: rgb(255, 255, 255); opacity: 0.5; transform-origin: 219.2px 265.895px; transform: rotate(12.01deg);" class="animable" id="el3vs6eg5ont6"></rect></g><g id="el22qwfj0m591"><rect x="245.22" y="275.74" width="5.58" height="3.83" rx="1" style="fill: rgb(255, 255, 255); opacity: 0.8; transform-origin: 248.01px 277.655px; transform: rotate(12.01deg);" class="animable" id="el0i4bdxp3phlj"></rect></g><g id="elzlscvp7ad5b"><rect x="251.98" y="276.86" width="2.58" height="3.83" rx="1" style="fill: rgb(255, 255, 255); opacity: 0.5; transform-origin: 253.27px 278.775px; transform: rotate(12deg);" class="animable" id="elnrzgct0jf7d"></rect></g><g id="elqfinimi2uwl"><rect x="210.15" y="279.42" width="2.58" height="3.83" rx="1" style="fill: rgb(255, 255, 255); opacity: 0.7; transform-origin: 211.44px 281.335px; transform: rotate(12deg);" class="animable" id="el7438934040n"></rect></g><g id="elvgzo8syujmp"><rect x="213.48" y="274.61" width="5.58" height="3.83" rx="1" style="fill: rgb(255, 255, 255); opacity: 0.8; transform-origin: 216.27px 276.525px; transform: rotate(-167.99deg);" class="animable" id="elg8guik0vvuq"></rect></g><g id="el080rejsykcqg"><rect x="209.73" y="273.49" width="2.58" height="3.83" rx="1" style="fill: rgb(255, 255, 255); opacity: 0.5; transform-origin: 211.02px 275.405px; transform: rotate(-167.99deg);" class="animable" id="elo2pqhgu73ok"></rect></g></g></g><path d="M278.15,304V325H66.65V304A275.5,275.5,0,0,1,278.15,304Z" style="fill: rgb(38, 50, 56); transform-origin: 172.4px 303.948px;" id="eld3sw5e9zzvv" class="animable"></path><path d="M162.34,248c0-10.38,5.92-18.81,16.31-18.81S195,237.64,195,248c0,7.16-1.48,13.37-7.36,16.56l.39,3.54a1.44,1.44,0,0,1-1.43,1.6h-.39a1.44,1.44,0,0,1-1.44-1.44v-.6l-3.29.16v1.37a1.43,1.43,0,0,1-1.44,1.44h-2a1.43,1.43,0,0,1-1.44-1.44v-1.62l-2.66-.47-.1,1.9a1.22,1.22,0,0,1-1.52.83l-2.21-.62a1.45,1.45,0,0,1-.94-2l.44-2.77C163.78,261.31,162.34,255.13,162.34,248Z" style="fill: #BA68C8; transform-origin: 178.67px 249.91px;" id="elvvlgtm2ayn" class="animable"></path><path d="M164.55,266.81c.73-.43,2.54.69,3.14,1.28,1.14,1.13,1.64,4.55,2.5,5.89.59.93,1.88,3.55,2.94,3.25.6-.17,0-2,.46-2.45a3.11,3.11,0,0,1,2.74-.35c.5.33.12,2,.62,2.31a2.28,2.28,0,0,0,2-.26c.44-.43-.07-2,.37-2.44a3.72,3.72,0,0,1,3.19-.54c.56.33.3,2.18.89,2.41s1.54-.44,1.77-.87-.65-2-.33-2.55c.43-.75,2.4-1.74,3.19-1.38.63.3.13,2.49.8,2.69.39.11,1.08-.69,1.22-1.07.57-1.62-1.62-5.11-1.19-6.77.21-.79,1.27-2.39,2.07-2.53a2.35,2.35,0,0,1,1.68,1c.46.82-.1,2.82-.1,3.76,0,1.81,1,5.6.21,7.22-.6,1.26-3.17,2.88-4.48,3.36a51.77,51.77,0,0,1-11.6,2.45c-1.5.07-4.71.09-6-.72s-2.27-3.66-3.08-4.85-3.16-3.45-3.54-4.92C163.83,269.79,163.69,267.32,164.55,266.81Z" style="fill: #BA68C8; transform-origin: 178.45px 272.34px;" id="elxbfahxys3v" class="animable"></path><g id="elspjkb7ypusk"><path d="M164.55,266.81c.73-.43,2.54.69,3.14,1.28,1.14,1.13,1.64,4.55,2.5,5.89.59.93,1.88,3.55,2.94,3.25.6-.17,0-2,.46-2.45a3.11,3.11,0,0,1,2.74-.35c.5.33.12,2,.62,2.31a2.28,2.28,0,0,0,2-.26c.44-.43-.07-2,.37-2.44a3.72,3.72,0,0,1,3.19-.54c.56.33.3,2.18.89,2.41s1.54-.44,1.77-.87-.65-2-.33-2.55c.43-.75,2.4-1.74,3.19-1.38.63.3.13,2.49.8,2.69.39.11,1.08-.69,1.22-1.07.57-1.62-1.62-5.11-1.19-6.77.21-.79,1.27-2.39,2.07-2.53a2.35,2.35,0,0,1,1.68,1c.46.82-.1,2.82-.1,3.76,0,1.81,1,5.6.21,7.22-.6,1.26-3.17,2.88-4.48,3.36a51.77,51.77,0,0,1-11.6,2.45c-1.5.07-4.71.09-6-.72s-2.27-3.66-3.08-4.85-3.16-3.45-3.54-4.92C163.83,269.79,163.69,267.32,164.55,266.81Z" style="fill: rgb(255, 255, 255); opacity: 0.9; transform-origin: 178.45px 272.34px;" class="animable" id="elyf9ballurt8"></path></g><g id="el7rbvq1fbfqe"><path d="M162.34,248c0-10.38,5.92-18.81,16.31-18.81S195,237.64,195,248c0,7.16-1.48,13.37-7.36,16.56l.39,3.54a1.44,1.44,0,0,1-1.43,1.6h-.39a1.44,1.44,0,0,1-1.44-1.44v-.6l-3.29.16v1.37a1.43,1.43,0,0,1-1.44,1.44h-2a1.43,1.43,0,0,1-1.44-1.44v-1.62l-2.66-.47-.1,1.9a1.22,1.22,0,0,1-1.52.83l-2.21-.62a1.45,1.45,0,0,1-.94-2l.44-2.77C163.78,261.31,162.34,255.13,162.34,248Z" style="fill: rgb(255, 255, 255); opacity: 0.9; transform-origin: 178.67px 249.91px;" class="animable" id="elhonj8p3hd69"></path></g><path d="M185,249.24c1.55,2.55,3.38,4.27,5.41,3s1.36-3.65-.19-6.2-3.38-4.27-5.41-3S183.45,246.69,185,249.24Z" style="fill: rgb(38, 50, 56); transform-origin: 187.61px 247.64px;" id="elaezpvi3ufsq" class="animable"></path><path d="M168.75,245.25c-1.59,2.52-2.31,4.92-.3,6.19s3.87-.41,5.46-2.93,2.31-4.93.3-6.2S170.34,242.73,168.75,245.25Z" style="fill: rgb(38, 50, 56); transform-origin: 171.33px 246.876px;" id="elkii1vg6a6s9" class="animable"></path><path d="M163.83,236.25a2.57,2.57,0,0,1-2.54,1.35c-3.65-.42-12.17-2.19-10.14-9.5s7.68-4,12.19-6.42a1.19,1.19,0,0,1,1.59,1.65,10.14,10.14,0,0,1-6.25,4.38c-6.07,1.64.54,2.73,3.81,3.13a2.49,2.49,0,0,1,2.22,2.61A7,7,0,0,1,163.83,236.25Z" style="fill: #BA68C8; transform-origin: 157.968px 229.576px;" id="elfmkoo7lbt65" class="animable"></path><g id="el4dc7d2vruna"><path d="M163.8,236.25a2.55,2.55,0,0,1-2.53,1.35c-3.66-.42-12.18-2.19-10.14-9.5s7.67-4,12.19-6.42a1.19,1.19,0,0,1,1.59,1.65,10.17,10.17,0,0,1-6.25,4.38c-6.07,1.64.53,2.73,3.81,3.13a2.5,2.5,0,0,1,2.22,2.61A7.17,7.17,0,0,1,163.8,236.25Z" style="fill: rgb(255, 255, 255); opacity: 0.9; transform-origin: 157.946px 229.576px;" class="animable" id="elt7lttg88ifm"></path></g><path d="M194.2,238a1.71,1.71,0,0,0,1.85.53c2.35-.8,7.7-3.17,5.33-7.69s-5.61-1.52-8.93-2.49a.8.8,0,0,0-.82,1.31,6.89,6.89,0,0,0,4.74,2c4.22.22,0,1.87-2.06,2.6a1.69,1.69,0,0,0-1.1,2A4.89,4.89,0,0,0,194.2,238Z" style="fill: #BA68C8; transform-origin: 196.694px 233.437px;" id="el1bwdb654g9k" class="animable"></path><g id="elymj42c41tb"><path d="M194.2,238a1.71,1.71,0,0,0,1.85.53c2.35-.8,7.7-3.17,5.33-7.69s-5.61-1.52-8.93-2.49a.8.8,0,0,0-.82,1.31,6.89,6.89,0,0,0,4.74,2c4.22.22,0,1.87-2.06,2.6a1.69,1.69,0,0,0-1.1,2A4.89,4.89,0,0,0,194.2,238Z" style="fill: rgb(255, 255, 255); opacity: 0.9; transform-origin: 196.694px 233.437px;" class="animable" id="eluk81pmdjbe"></path></g><path d="M180.15,253.86s-.16,1.26-.5,1.27-.56-1.24-.56-1.24a1,1,0,0,0-1.69-.09A11.48,11.48,0,0,0,176,258c0,1.16,1.65-.39,3.68-.39s3.68,1.55,3.68.39a11.53,11.53,0,0,0-1.49-4.26A.94.94,0,0,0,180.15,253.86Z" style="fill: rgb(38, 50, 56); transform-origin: 179.68px 255.832px;" id="eldouh4q64p9b" class="animable"></path><g id="elzk2fe80t3sc"><path d="M201.26,275s0,7.14-23.49,8.15-23.5-13-23.5-13-6.53-6.14-9,3.29c0,0,9.55,17.1,32.63,14.54s29.41-8.06,29.41-8.06S210,272.43,201.26,275Z" style="fill: rgb(255, 255, 255); opacity: 0.9; transform-origin: 176.485px 278.213px;" class="animable" id="elxyjv0p925wn"></path></g><path d="M137.23,274.18l2.18-1.58a2.13,2.13,0,0,1,3,.57l.41.63a2.13,2.13,0,0,1,0,2.37l-.12.17a2.13,2.13,0,0,0,.52,3h0a2.12,2.12,0,0,1,.53,3l-1.27,1.82a2.13,2.13,0,0,1-3,.52l-1.37-1a2.29,2.29,0,0,0-.82-.35l-25.22-4.87a2.07,2.07,0,0,0-1,.05l-2.41.69a2.13,2.13,0,0,1-2.71-1.89l0-.49a2.11,2.11,0,0,1,.88-1.88l1.68-1.21a2.13,2.13,0,0,0,.88-1.84l-.07-1.41a2.12,2.12,0,0,1,2.08-2.23h.39a2.12,2.12,0,0,1,1.92,1.11l1.29,2.37a2.11,2.11,0,0,0,1.67,1.11l19.1,1.79A2.1,2.1,0,0,0,137.23,274.18Z" style="fill: #BA68C8; transform-origin: 125.048px 276.666px;" id="elqt4ddf7sa9n" class="animable"></path><g id="elh1gdjttwphv"><path d="M137.23,274.18l2.18-1.58a2.13,2.13,0,0,1,3,.57l.41.63a2.13,2.13,0,0,1,0,2.37l-.12.17a2.13,2.13,0,0,0,.52,3h0a2.12,2.12,0,0,1,.53,3l-1.27,1.82a2.13,2.13,0,0,1-3,.52l-1.37-1a2.29,2.29,0,0,0-.82-.35l-25.22-4.87a2.07,2.07,0,0,0-1,.05l-2.41.69a2.13,2.13,0,0,1-2.71-1.89l0-.49a2.11,2.11,0,0,1,.88-1.88l1.68-1.21a2.13,2.13,0,0,0,.88-1.84l-.07-1.41a2.12,2.12,0,0,1,2.08-2.23h.39a2.12,2.12,0,0,1,1.92,1.11l1.29,2.37a2.11,2.11,0,0,0,1.67,1.11l19.1,1.79A2.1,2.1,0,0,0,137.23,274.18Z" style="fill: rgb(255, 255, 255); opacity: 0.8; transform-origin: 125.048px 276.666px;" class="animable" id="elwu7feyzaep"></path></g><path d="M116,263l.83,1.89a1.62,1.62,0,0,1-.9,2.18l-.54.21a1.64,1.64,0,0,1-1.77-.41l-.11-.11a1.62,1.62,0,0,0-2.3-.08h0a1.64,1.64,0,0,1-2.3-.08l-1.16-1.24a1.63,1.63,0,0,1,.08-2.3l.94-.88a1.78,1.78,0,0,0,.39-.55l7.66-18.12a1.62,1.62,0,0,0,.12-.75l-.13-1.92a1.62,1.62,0,0,1,1.85-1.72l.37,0a1.63,1.63,0,0,1,1.27,1l.64,1.46a1.61,1.61,0,0,0,1.23.95l1.07.17a1.63,1.63,0,0,1,1.34,1.91l0,.3a1.65,1.65,0,0,1-1.14,1.26l-2,.59a1.6,1.6,0,0,0-1.09,1.07l-4.38,14A1.55,1.55,0,0,0,116,263Z" style="fill: #BA68C8; transform-origin: 115.961px 253.244px;" id="el58z3ennpqj" class="animable"></path><g id="elc42y1hhjqn"><path d="M116,263l.83,1.89a1.62,1.62,0,0,1-.9,2.18l-.54.21a1.64,1.64,0,0,1-1.77-.41l-.11-.11a1.62,1.62,0,0,0-2.3-.08h0a1.64,1.64,0,0,1-2.3-.08l-1.16-1.24a1.63,1.63,0,0,1,.08-2.3l.94-.88a1.78,1.78,0,0,0,.39-.55l7.66-18.12a1.62,1.62,0,0,0,.12-.75l-.13-1.92a1.62,1.62,0,0,1,1.85-1.72l.37,0a1.63,1.63,0,0,1,1.27,1l.64,1.46a1.61,1.61,0,0,0,1.23.95l1.07.17a1.63,1.63,0,0,1,1.34,1.91l0,.3a1.65,1.65,0,0,1-1.14,1.26l-2,.59a1.6,1.6,0,0,0-1.09,1.07l-4.38,14A1.55,1.55,0,0,0,116,263Z" style="fill: rgb(255, 255, 255); opacity: 0.7; transform-origin: 115.961px 253.244px;" class="animable" id="elgabcx1fbvcf"></path></g><path d="M129.68,237.89,125.36,241a2.24,2.24,0,0,1-3.08-.47L119,236.16a2.24,2.24,0,0,1,.92-3.41l1.92-.81a2.23,2.23,0,0,1,2.61.68h0a2.24,2.24,0,0,0,2.31.77l.73-.19a2.23,2.23,0,0,1,2.56,1.16l.36.72A2.23,2.23,0,0,1,129.68,237.89Z" style="fill: #BA68C8; transform-origin: 124.594px 236.591px;" id="ellt7rycjr7b" class="animable"></path><g id="el75rwspcyimd"><path d="M129.68,237.89,125.36,241a2.24,2.24,0,0,1-3.08-.47L119,236.16a2.24,2.24,0,0,1,.92-3.41l1.92-.81a2.23,2.23,0,0,1,2.61.68h0a2.24,2.24,0,0,0,2.31.77l.73-.19a2.23,2.23,0,0,1,2.56,1.16l.36.72A2.23,2.23,0,0,1,129.68,237.89Z" style="fill: rgb(255, 255, 255); opacity: 0.8; transform-origin: 124.594px 236.591px;" class="animable" id="el3pncnp0krdr"></path></g><path d="M127.91,232.18l-4.31-1-.26-.05h0a3.55,3.55,0,0,1-2.36-5.54l1.31-1.88a3.61,3.61,0,0,0,.61-1.55l.49-3.53a3.55,3.55,0,0,1,5.1-2.68l1.17.58a3.56,3.56,0,0,1,1.92,2.59l1.33,8a3.56,3.56,0,0,1-.59,2.61l-.7,1A3.54,3.54,0,0,1,127.91,232.18Z" style="fill: #BA68C8; transform-origin: 126.649px 223.923px;" id="ela7o1emq4aze" class="animable"></path><g id="elllo8xbgr87"><path d="M127.91,232.18l-4.31-1-.26-.05h0a3.55,3.55,0,0,1-2.36-5.54l1.31-1.88a3.61,3.61,0,0,0,.61-1.55l.49-3.53a3.55,3.55,0,0,1,5.1-2.68l1.17.58a3.56,3.56,0,0,1,1.92,2.59l1.33,8a3.56,3.56,0,0,1-.59,2.61l-.7,1A3.54,3.54,0,0,1,127.91,232.18Z" style="fill: rgb(255, 255, 255); opacity: 0.7; transform-origin: 126.649px 223.923px;" class="animable" id="el3wm58asxf06"></path></g><path d="M132.34,235.78l-.06-.22a1.79,1.79,0,0,1,1.14-2.18l1.9-.66a1.79,1.79,0,0,1,2.22.95h0a1.79,1.79,0,0,1-.86,2.36l-1.84.89A1.8,1.8,0,0,1,132.34,235.78Z" style="fill: #BA68C8; transform-origin: 134.957px 234.856px;" id="elrsdahfiybze" class="animable"></path><g id="el715bpwfyvme"><path d="M132.34,235.78l-.06-.22a1.79,1.79,0,0,1,1.14-2.18l1.9-.66a1.79,1.79,0,0,1,2.22.95h0a1.79,1.79,0,0,1-.86,2.36l-1.84.89A1.8,1.8,0,0,1,132.34,235.78Z" style="fill: rgb(255, 255, 255); opacity: 0.7; transform-origin: 134.957px 234.856px;" class="animable" id="elbma22qcee1h"></path></g><path d="M205,284.15S197,292,182.33,292c0,0-3.47,1.92,0,4.85,0,0,17.56,1.19,24.81-7.55C207.14,289.33,209.5,285.92,205,284.15Z" style="fill: #BA68C8; transform-origin: 194.273px 290.527px;" id="eloiyjimcub9" class="animable"></path><g id="elds9pt6jkfz"><path d="M205,284.15S197,292,182.33,292c0,0-3.47,1.92,0,4.85,0,0,17.56,1.19,24.81-7.55C207.14,289.33,209.5,285.92,205,284.15Z" style="fill: rgb(255, 255, 255); opacity: 0.8; transform-origin: 194.273px 290.527px;" class="animable" id="elgs8paabkw3a"></path></g><path d="M149,284.09s7.94,7.88,22.63,7.88c0,0,3.46,1.93,0,4.85,0,0-17.57,1.19-24.82-7.55C146.76,289.27,144.4,285.86,149,284.09Z" style="fill: #BA68C8; transform-origin: 159.664px 290.482px;" id="elbxbwomr3n5j" class="animable"></path><g id="el70sp4jsfr3j"><path d="M149,284.09s7.94,7.88,22.63,7.88c0,0,3.46,1.93,0,4.85,0,0-17.57,1.19-24.82-7.55C146.76,289.27,144.4,285.86,149,284.09Z" style="fill: rgb(255, 255, 255); opacity: 0.8; transform-origin: 159.664px 290.482px;" class="animable" id="elbgylemy9lil"></path></g><path d="M201.35,296.09s-7.18,7.13-20.45,7.13c0,0-3.13,1.74,0,4.37,0,0,15.88,1.08,22.42-6.81C203.32,300.78,205.46,297.7,201.35,296.09Z" style="fill: #BA68C8; transform-origin: 191.693px 301.865px;" id="elzck0963gdnn" class="animable"></path><g id="elhqccfaxsjv"><path d="M201.35,296.09s-7.18,7.13-20.45,7.13c0,0-3.13,1.74,0,4.37,0,0,15.88,1.08,22.42-6.81C203.32,300.78,205.46,297.7,201.35,296.09Z" style="fill: rgb(255, 255, 255); opacity: 0.8; transform-origin: 191.693px 301.865px;" class="animable" id="eliyyac6vs43"></path></g><path d="M150.75,296s7.17,7.12,20.44,7.12c0,0,3.13,1.74,0,4.38,0,0-15.87,1.08-22.41-6.81C148.78,300.73,146.64,297.65,150.75,296Z" style="fill: #BA68C8; transform-origin: 160.402px 301.775px;" id="elex25801452v" class="animable"></path><g id="elblrj43cjq6p"><path d="M150.75,296s7.17,7.12,20.44,7.12c0,0,3.13,1.74,0,4.38,0,0-15.87,1.08-22.41-6.81C148.78,300.73,146.64,297.65,150.75,296Z" style="fill: rgb(255, 255, 255); opacity: 0.9; transform-origin: 160.402px 301.775px;" class="animable" id="elmzckumoy8hh"></path></g><path d="M201.35,306.44s-7.18,7.13-20.45,7.13c0,0-3.13,1.74,0,4.38,0,0,15.88,1.07,22.42-6.82C203.32,311.13,205.46,308.05,201.35,306.44Z" style="fill: #BA68C8; transform-origin: 191.693px 312.219px;" id="el2tk6w0hsas6" class="animable"></path><g id="el88xpjce4dys"><path d="M201.35,306.44s-7.18,7.13-20.45,7.13c0,0-3.13,1.74,0,4.38,0,0,15.88,1.07,22.42-6.82C203.32,311.13,205.46,308.05,201.35,306.44Z" style="fill: rgb(255, 255, 255); opacity: 0.9; transform-origin: 191.693px 312.219px;" class="animable" id="el5pmqsdaeeui"></path></g><path d="M150.75,306.39s7.17,7.12,20.44,7.12c0,0,3.13,1.74,0,4.38,0,0-15.87,1.08-22.41-6.81C148.78,311.08,146.64,308,150.75,306.39Z" style="fill: #BA68C8; transform-origin: 160.402px 312.165px;" id="ell11ty5vgpnj" class="animable"></path><g id="elf6sjtct8k76"><path d="M150.75,306.39s7.17,7.12,20.44,7.12c0,0,3.13,1.74,0,4.38,0,0-15.87,1.08-22.41-6.81C148.78,311.08,146.64,308,150.75,306.39Z" style="fill: rgb(255, 255, 255); opacity: 0.8; transform-origin: 160.402px 312.165px;" class="animable" id="elpqciil4lbii"></path></g><path d="M215.7,278.08l-2.58-.79a2.12,2.12,0,0,0-2.68,1.52l-.18.73a2.12,2.12,0,0,0,.81,2.23l.16.12a2.13,2.13,0,0,1,.47,3h0a2.13,2.13,0,0,0,.46,3l1.8,1.31a2.13,2.13,0,0,0,3-.47l1-1.35a2.07,2.07,0,0,1,.66-.59l22.27-12.81a2.1,2.1,0,0,1,.95-.28l2.5-.13a2.13,2.13,0,0,0,2-2.67l-.13-.47a2.1,2.1,0,0,0-1.44-1.49l-2-.6a2.13,2.13,0,0,1-1.42-1.45l-.4-1.36a2.12,2.12,0,0,0-2.68-1.44l-.38.12a2.13,2.13,0,0,0-1.45,1.68l-.45,2.66a2.12,2.12,0,0,1-1.22,1.59L217.2,278A2.16,2.16,0,0,1,215.7,278.08Z" style="fill: #BA68C8; transform-origin: 228.303px 276.805px;" id="elaseuhtjk2jw" class="animable"></path><g id="elezra1c578fc"><path d="M215.7,278.08l-2.58-.79a2.12,2.12,0,0,0-2.68,1.52l-.18.73a2.12,2.12,0,0,0,.81,2.23l.16.12a2.13,2.13,0,0,1,.47,3h0a2.13,2.13,0,0,0,.46,3l1.8,1.31a2.13,2.13,0,0,0,3-.47l1-1.35a2.07,2.07,0,0,1,.66-.59l22.27-12.81a2.1,2.1,0,0,1,.95-.28l2.5-.13a2.13,2.13,0,0,0,2-2.67l-.13-.47a2.1,2.1,0,0,0-1.44-1.49l-2-.6a2.13,2.13,0,0,1-1.42-1.45l-.4-1.36a2.12,2.12,0,0,0-2.68-1.44l-.38.12a2.13,2.13,0,0,0-1.45,1.68l-.45,2.66a2.12,2.12,0,0,1-1.22,1.59L217.2,278A2.16,2.16,0,0,1,215.7,278.08Z" style="fill: rgb(255, 255, 255); opacity: 0.8; transform-origin: 228.303px 276.805px;" class="animable" id="el28fxhyg06wm"></path></g><path d="M232.12,260.61l-.18,2.06a1.62,1.62,0,0,0,1.56,1.77l.58,0a1.64,1.64,0,0,0,1.54-1l.06-.15a1.63,1.63,0,0,1,2.15-.82h0a1.62,1.62,0,0,0,2.15-.82l.7-1.55a1.64,1.64,0,0,0-.83-2.15l-1.17-.52a1.65,1.65,0,0,1-.54-.4L225,242.44a1.59,1.59,0,0,1-.36-.66l-.5-1.86a1.62,1.62,0,0,0-2.3-1l-.34.17a1.61,1.61,0,0,0-.89,1.31l-.13,1.59a1.64,1.64,0,0,1-.86,1.3l-1,.51A1.62,1.62,0,0,0,218,246l.15.27a1.63,1.63,0,0,0,1.48.82l2.07-.09a1.6,1.6,0,0,1,1.38.66l8.71,11.84A1.67,1.67,0,0,1,232.12,260.61Z" style="fill: #BA68C8; transform-origin: 229.306px 251.59px;" id="elnomwflyya6" class="animable"></path><g id="eleoo6phhukbj"><path d="M232.12,260.61l-.18,2.06a1.62,1.62,0,0,0,1.56,1.77l.58,0a1.64,1.64,0,0,0,1.54-1l.06-.15a1.63,1.63,0,0,1,2.15-.82h0a1.62,1.62,0,0,0,2.15-.82l.7-1.55a1.64,1.64,0,0,0-.83-2.15l-1.17-.52a1.65,1.65,0,0,1-.54-.4L225,242.44a1.59,1.59,0,0,1-.36-.66l-.5-1.86a1.62,1.62,0,0,0-2.3-1l-.34.17a1.61,1.61,0,0,0-.89,1.31l-.13,1.59a1.64,1.64,0,0,1-.86,1.3l-1,.51A1.62,1.62,0,0,0,218,246l.15.27a1.63,1.63,0,0,0,1.48.82l2.07-.09a1.6,1.6,0,0,1,1.38.66l8.71,11.84A1.67,1.67,0,0,1,232.12,260.61Z" style="fill: rgb(255, 255, 255); opacity: 0.7; transform-origin: 229.306px 251.59px;" class="animable" id="elvpip264orxd"></path></g><path d="M211,241.3l5.09,1.52a2.24,2.24,0,0,0,2.76-1.44l1.71-5.19a2.23,2.23,0,0,0-2-2.93l-2.08-.14a2.23,2.23,0,0,0-2.25,1.49h0a2.26,2.26,0,0,1-1.94,1.48l-.75,0a2.25,2.25,0,0,0-2,1.94l-.1.79A2.22,2.22,0,0,0,211,241.3Z" style="fill: #BA68C8; transform-origin: 215.043px 238.014px;" id="elih8zv829cd" class="animable"></path><g id="elxhnicabjucl"><path d="M211,241.3l5.09,1.52a2.24,2.24,0,0,0,2.76-1.44l1.71-5.19a2.23,2.23,0,0,0-2-2.93l-2.08-.14a2.23,2.23,0,0,0-2.25,1.49h0a2.26,2.26,0,0,1-1.94,1.48l-.75,0a2.25,2.25,0,0,0-2,1.94l-.1.79A2.22,2.22,0,0,0,211,241.3Z" style="fill: rgb(255, 255, 255); opacity: 0.8; transform-origin: 215.043px 238.014px;" class="animable" id="el98u99bx0x7s"></path></g><path d="M210.85,235.33l3.76-2.35a1.71,1.71,0,0,1,.23-.13h0a3.55,3.55,0,0,0,.43-6l-1.85-1.35a3.48,3.48,0,0,1-1.08-1.27l-1.61-3.17a3.55,3.55,0,0,0-5.7-.89l-.92.93a3.61,3.61,0,0,0-1,3.08l1.35,8a3.55,3.55,0,0,0,1.41,2.28l1,.72A3.57,3.57,0,0,0,210.85,235.33Z" style="fill: #BA68C8; transform-origin: 209.896px 227.487px;" id="elwbhkdqubx6m" class="animable"></path><g id="elldilpv0mum"><path d="M210.85,235.33l3.76-2.35a1.71,1.71,0,0,1,.23-.13h0a3.55,3.55,0,0,0,.43-6l-1.85-1.35a3.48,3.48,0,0,1-1.08-1.27l-1.61-3.17a3.55,3.55,0,0,0-5.7-.89l-.92.93a3.61,3.61,0,0,0-1,3.08l1.35,8a3.55,3.55,0,0,0,1.41,2.28l1,.72A3.57,3.57,0,0,0,210.85,235.33Z" style="fill: rgb(255, 255, 255); opacity: 0.7; transform-origin: 209.896px 227.487px;" class="animable" id="eld90xvqvxrcc"></path></g><path d="M207.84,240.17v-.23a1.81,1.81,0,0,0-1.79-1.69h-2a1.79,1.79,0,0,0-1.78,1.62h0a1.78,1.78,0,0,0,1.57,1.95l2,.24A1.81,1.81,0,0,0,207.84,240.17Z" style="fill: #BA68C8; transform-origin: 205.051px 240.16px;" id="elq4d7bawo4q" class="animable"></path><g id="elu62lc2t25q"><path d="M207.84,240.17v-.23a1.81,1.81,0,0,0-1.79-1.69h-2a1.79,1.79,0,0,0-1.78,1.62h0a1.78,1.78,0,0,0,1.57,1.95l2,.24A1.81,1.81,0,0,0,207.84,240.17Z" style="fill: rgb(255, 255, 255); opacity: 0.7; transform-origin: 205.051px 240.16px;" class="animable" id="elrjqn862ju8d"></path></g><path d="M203.32,321.5A14.73,14.73,0,0,1,199,325H179.82a3.46,3.46,0,0,1,1.08-1c13.27,0,20.45-7.13,20.45-7.13C205.46,318.42,203.32,321.5,203.32,321.5Z" style="fill: #BA68C8; transform-origin: 191.848px 320.935px;" id="elzf4mlvnh5xq" class="animable"></path><g id="eltpqnv9zsvh"><path d="M203.32,321.5A14.73,14.73,0,0,1,199,325H179.82a3.46,3.46,0,0,1,1.08-1c13.27,0,20.45-7.13,20.45-7.13C205.46,318.42,203.32,321.5,203.32,321.5Z" style="fill: rgb(255, 255, 255); opacity: 0.9; transform-origin: 191.848px 320.935px;" class="animable" id="eli3dcy81rtf"></path></g><path d="M172.3,325H153.19a14.55,14.55,0,0,1-4.42-3.51s-2.13-3.08,2-4.69c0,0,7.17,7.12,20.44,7.12A3.34,3.34,0,0,1,172.3,325Z" style="fill: #BA68C8; transform-origin: 160.26px 320.9px;" id="elicybgtdfh9h" class="animable"></path><g id="el36gcygc7jci"><path d="M172.3,325H153.19a14.55,14.55,0,0,1-4.42-3.51s-2.13-3.08,2-4.69c0,0,7.17,7.12,20.44,7.12A3.34,3.34,0,0,1,172.3,325Z" style="fill: rgb(255, 255, 255); opacity: 0.8; transform-origin: 160.26px 320.9px;" class="animable" id="elg9qy1kbmev"></path></g><path d="M164.08,250.35h-5a6.76,6.76,0,0,0-6.12-6.13v-5h-1.21v5a6.77,6.77,0,0,0-6.12,6.13h-5v1.2h5a6.77,6.77,0,0,0,6.12,6.13v5h1.21v-5a6.76,6.76,0,0,0,6.12-6.13h5Zm-11.14,6.12v-3h-1.21v3a5.56,5.56,0,0,1-4.92-4.92h3v-1.2h-3a5.57,5.57,0,0,1,4.92-4.92v3h1.21v-3a5.57,5.57,0,0,1,4.92,4.92h-3v1.2h3A5.56,5.56,0,0,1,152.94,256.47Z" style="fill: #BA68C8; transform-origin: 152.355px 250.95px;" id="eltezzf997oa" class="animable"></path><g id="ellyt70sygs4j"><path d="M164.08,250.35h-5a6.76,6.76,0,0,0-6.12-6.13v-5h-1.21v5a6.77,6.77,0,0,0-6.12,6.13h-5v1.2h5a6.77,6.77,0,0,0,6.12,6.13v5h1.21v-5a6.76,6.76,0,0,0,6.12-6.13h5Zm-11.14,6.12v-3h-1.21v3a5.56,5.56,0,0,1-4.92-4.92h3v-1.2h-3a5.57,5.57,0,0,1,4.92-4.92v3h1.21v-3a5.57,5.57,0,0,1,4.92,4.92h-3v1.2h3A5.56,5.56,0,0,1,152.94,256.47Z" style="fill: #BA68C8; opacity: 0.9; transform-origin: 152.355px 250.95px;" class="animable" id="elap4nax6wpk4"></path></g><g id="eljwm58wcvai"><path d="M164.08,250.35h-5a6.76,6.76,0,0,0-6.12-6.13v-5h-1.21v5a6.77,6.77,0,0,0-6.12,6.13h-5v1.2h5a6.77,6.77,0,0,0,6.12,6.13v5h1.21v-5a6.76,6.76,0,0,0,6.12-6.13h5Zm-11.14,6.12v-3h-1.21v3a5.56,5.56,0,0,1-4.92-4.92h3v-1.2h-3a5.57,5.57,0,0,1,4.92-4.92v3h1.21v-3a5.57,5.57,0,0,1,4.92,4.92h-3v1.2h3A5.56,5.56,0,0,1,152.94,256.47Z" style="fill: rgb(255, 255, 255); opacity: 0.5; transform-origin: 152.355px 250.95px;" class="animable" id="eldr5r29gfe9l"></path></g><polygon points="81.46 208.17 79.05 209.57 76.63 208.17 74.22 209.57 74.22 212.35 79.05 217.44 83.87 212.35 83.87 209.57 81.46 208.17" style="fill: #BA68C8; transform-origin: 79.045px 212.805px;" id="eldk7z4wiphg" class="animable"></polygon><g id="eltktu51rn61"><polygon points="81.46 208.17 79.05 209.57 76.63 208.17 74.22 209.57 74.22 212.35 79.05 217.44 83.87 212.35 83.87 209.57 81.46 208.17" style="fill: rgb(255, 255, 255); opacity: 0.8; transform-origin: 79.045px 212.805px;" class="animable" id="el9585bojt71h"></polygon></g><polygon points="95.32 214.18 84.79 214.18 86.26 210.57 96.8 210.57 95.32 214.18" style="fill: #BA68C8; transform-origin: 90.795px 212.375px;" id="elwq24vg33buf" class="animable"></polygon><polygon points="106.59 214.18 96.06 214.18 97.53 210.57 108.07 210.57 106.59 214.18" style="fill: #BA68C8; transform-origin: 102.065px 212.375px;" id="el4220bnmqw5a" class="animable"></polygon><polygon points="117.87 214.18 107.33 214.18 108.81 210.57 119.34 210.57 117.87 214.18" style="fill: #BA68C8; transform-origin: 113.335px 212.375px;" id="elcp1zfcptjwc" class="animable"></polygon><polygon points="129.14 214.18 118.6 214.18 120.08 210.57 130.61 210.57 129.14 214.18" style="fill: #BA68C8; transform-origin: 124.605px 212.375px;" id="elkhe8fu5u14" class="animable"></polygon><g id="el84u88orhipe"><polygon points="95.32 214.18 84.79 214.18 86.26 210.57 96.8 210.57 95.32 214.18" style="fill: rgb(255, 255, 255); opacity: 0.8; transform-origin: 90.795px 212.375px;" class="animable" id="elotuo2xm2859"></polygon></g><g id="el4cenyu7n5wq"><polygon points="106.59 214.18 96.06 214.18 97.53 210.57 108.07 210.57 106.59 214.18" style="fill: rgb(255, 255, 255); opacity: 0.8; transform-origin: 102.065px 212.375px;" class="animable" id="el9xuceube5k"></polygon></g><g id="elcrc1x5dcbla"><polygon points="117.87 214.18 107.33 214.18 108.81 210.57 119.34 210.57 117.87 214.18" style="fill: rgb(255, 255, 255); opacity: 0.3; transform-origin: 113.335px 212.375px;" class="animable" id="el8hz1lw61k9w"></polygon></g><g id="ellgllwjswtlq"><polygon points="129.14 214.18 118.6 214.18 120.08 210.57 130.61 210.57 129.14 214.18" style="fill: rgb(255, 255, 255); opacity: 0.3; transform-origin: 124.605px 212.375px;" class="animable" id="elbkktr88hdu"></polygon></g><path d="M267,219.6a.85.85,0,0,0,.85-.83,34.51,34.51,0,0,0-.26-5.86c-.23-1-1.45-3.22-2.13-3.22s-1.9,2.25-2.13,3.22a34.51,34.51,0,0,0-.26,5.86.85.85,0,0,0,.84.83Z" style="fill: rgb(38, 50, 56); transform-origin: 265.46px 214.645px;" id="elq8sf4b5opl" class="animable"></path><path d="M267.32,221.15h-3.64a.58.58,0,0,1-.58-.58h0a.58.58,0,0,1,.58-.58h3.64a.58.58,0,0,1,.58.58h0A.58.58,0,0,1,267.32,221.15Z" style="fill: rgb(38, 50, 56); transform-origin: 265.5px 220.57px;" id="el2b2q9uluwoi" class="animable"></path><g id="el5cgs1jwke99"><path d="M267,219.6a.85.85,0,0,0,.85-.83,34.51,34.51,0,0,0-.26-5.86c-.23-1-1.45-3.22-2.13-3.22s-1.9,2.25-2.13,3.22a34.51,34.51,0,0,0-.26,5.86.85.85,0,0,0,.84.83Z" style="fill: rgb(255, 255, 255); opacity: 0.8; transform-origin: 265.46px 214.645px;" class="animable" id="el8fdewyeae1k"></path></g><g id="elk5rc7hcjc59"><path d="M267.32,221.15h-3.64a.58.58,0,0,1-.58-.58h0a.58.58,0,0,1,.58-.58h3.64a.58.58,0,0,1,.58.58h0A.58.58,0,0,1,267.32,221.15Z" style="fill: rgb(255, 255, 255); opacity: 0.8; transform-origin: 265.5px 220.57px;" class="animable" id="elv0j6eq7vnwc"></path></g><path d="M261.31,219.6a.84.84,0,0,0,.84-.83,34.55,34.55,0,0,0-.25-5.86c-.24-1-1.46-3.22-2.14-3.22s-1.89,2.25-2.13,3.22a34.51,34.51,0,0,0-.26,5.86.85.85,0,0,0,.85.83Z" style="fill: rgb(38, 50, 56); transform-origin: 259.761px 214.645px;" id="elnrr62x7l48" class="animable"></path><path d="M261.58,221.15h-3.64a.58.58,0,0,1-.58-.58h0a.58.58,0,0,1,.58-.58h3.64a.58.58,0,0,1,.58.58h0A.58.58,0,0,1,261.58,221.15Z" style="fill: rgb(38, 50, 56); transform-origin: 259.76px 220.57px;" id="el8p8o3ehd014" class="animable"></path><g id="elgselus0gp0m"><path d="M261.31,219.6a.84.84,0,0,0,.84-.83,34.55,34.55,0,0,0-.25-5.86c-.24-1-1.46-3.22-2.14-3.22s-1.89,2.25-2.13,3.22a34.51,34.51,0,0,0-.26,5.86.85.85,0,0,0,.85.83Z" style="fill: rgb(255, 255, 255); opacity: 0.8; transform-origin: 259.761px 214.645px;" class="animable" id="elzrx57jw1reg"></path></g><g id="elyupnlht2o7k"><path d="M261.58,221.15h-3.64a.58.58,0,0,1-.58-.58h0a.58.58,0,0,1,.58-.58h3.64a.58.58,0,0,1,.58.58h0A.58.58,0,0,1,261.58,221.15Z" style="fill: rgb(255, 255, 255); opacity: 0.8; transform-origin: 259.76px 220.57px;" class="animable" id="eltewd0gxp18"></path></g><path d="M255.57,219.6a.84.84,0,0,0,.84-.83,33.55,33.55,0,0,0-.25-5.86c-.24-1-1.45-3.22-2.14-3.22s-1.89,2.25-2.13,3.22a33.55,33.55,0,0,0-.25,5.86.84.84,0,0,0,.84.83Z" style="fill: rgb(38, 50, 56); transform-origin: 254.025px 214.645px;" id="elif9c3vv4vxd" class="animable"></path><path d="M255.84,221.15H252.2a.58.58,0,0,1-.58-.58h0a.58.58,0,0,1,.58-.58h3.64a.58.58,0,0,1,.58.58h0A.58.58,0,0,1,255.84,221.15Z" style="fill: rgb(38, 50, 56); transform-origin: 254.02px 220.57px;" id="elbfqvagqqgw" class="animable"></path><g id="elpmmkiaxn2gn"><path d="M255.57,219.6a.84.84,0,0,0,.84-.83,33.55,33.55,0,0,0-.25-5.86c-.24-1-1.45-3.22-2.14-3.22s-1.89,2.25-2.13,3.22a33.55,33.55,0,0,0-.25,5.86.84.84,0,0,0,.84.83Z" style="fill: rgb(255, 255, 255); opacity: 0.8; transform-origin: 254.025px 214.645px;" class="animable" id="elledtu2z2bka"></path></g><g id="elk87d4adsh99"><path d="M255.84,221.15H252.2a.58.58,0,0,1-.58-.58h0a.58.58,0,0,1,.58-.58h3.64a.58.58,0,0,1,.58.58h0A.58.58,0,0,1,255.84,221.15Z" style="fill: rgb(255, 255, 255); opacity: 0.8; transform-origin: 254.02px 220.57px;" class="animable" id="elvxu2oh9cnh"></path></g><path d="M249.83,219.6a.84.84,0,0,0,.84-.83,33.55,33.55,0,0,0-.25-5.86c-.24-1-1.45-3.22-2.13-3.22s-1.9,2.25-2.14,3.22a33.55,33.55,0,0,0-.25,5.86.84.84,0,0,0,.84.83Z" style="fill: rgb(38, 50, 56); transform-origin: 248.285px 214.645px;" id="elsdlxi3ky10b" class="animable"></path><path d="M250.11,221.15h-3.64a.58.58,0,0,1-.59-.58h0a.58.58,0,0,1,.59-.58h3.64a.58.58,0,0,1,.58.58h0A.58.58,0,0,1,250.11,221.15Z" style="fill: rgb(38, 50, 56); transform-origin: 248.285px 220.57px;" id="elxw5z3e7tz1" class="animable"></path><g id="el41p3zxwlzq"><path d="M249.83,219.6a.84.84,0,0,0,.84-.83,33.55,33.55,0,0,0-.25-5.86c-.24-1-1.45-3.22-2.13-3.22s-1.9,2.25-2.14,3.22a33.55,33.55,0,0,0-.25,5.86.84.84,0,0,0,.84.83Z" style="fill: rgb(255, 255, 255); opacity: 0.4; transform-origin: 248.285px 214.645px;" class="animable" id="el5queez13l59"></path></g><g id="el3l0oky4xlyw"><path d="M250.11,221.15h-3.64a.58.58,0,0,1-.59-.58h0a.58.58,0,0,1,.59-.58h3.64a.58.58,0,0,1,.58.58h0A.58.58,0,0,1,250.11,221.15Z" style="fill: rgb(255, 255, 255); opacity: 0.4; transform-origin: 248.285px 220.57px;" class="animable" id="eleay91zmrd0o"></path></g><path d="M244.09,219.6a.84.84,0,0,0,.84-.83,33.55,33.55,0,0,0-.25-5.86c-.24-1-1.45-3.22-2.13-3.22s-1.9,2.25-2.14,3.22a33.55,33.55,0,0,0-.25,5.86.84.84,0,0,0,.84.83Z" style="fill: rgb(38, 50, 56); transform-origin: 242.545px 214.645px;" id="elr3xppi2fgqe" class="animable"></path><path d="M244.37,221.15h-3.64a.58.58,0,0,1-.58-.58h0a.58.58,0,0,1,.58-.58h3.64a.58.58,0,0,1,.58.58h0A.58.58,0,0,1,244.37,221.15Z" style="fill: rgb(38, 50, 56); transform-origin: 242.55px 220.57px;" id="elsbs8267gi5o" class="animable"></path><g id="elpo9pkwiyndn"><path d="M244.09,219.6a.84.84,0,0,0,.84-.83,33.55,33.55,0,0,0-.25-5.86c-.24-1-1.45-3.22-2.13-3.22s-1.9,2.25-2.14,3.22a33.55,33.55,0,0,0-.25,5.86.84.84,0,0,0,.84.83Z" style="fill: rgb(255, 255, 255); opacity: 0.4; transform-origin: 242.545px 214.645px;" class="animable" id="elm49j32o19uc"></path></g><g id="el26j32si62uq"><path d="M244.37,221.15h-3.64a.58.58,0,0,1-.58-.58h0a.58.58,0,0,1,.58-.58h3.64a.58.58,0,0,1,.58.58h0A.58.58,0,0,1,244.37,221.15Z" style="fill: rgb(255, 255, 255); opacity: 0.4; transform-origin: 242.55px 220.57px;" class="animable" id="elwlfw9zc409m"></path></g></g><g id="freepik--Character--inject-66" class="animable" style="transform-origin: 341.304px 295.544px;"><path d="M377.06,208.19l-3.79,3.14a3.66,3.66,0,0,0,3,1.32Z" style="fill: rgb(237, 137, 62); transform-origin: 375.165px 210.422px;" id="el1uvtpgbeoj5" class="animable"></path><path d="M375.93,207.14c-.17.51-.05,1,.28,1.13s.77-.23.93-.72,0-1-.29-1.12S376.1,206.64,375.93,207.14Z" style="fill: rgb(26, 46, 53); transform-origin: 376.528px 207.351px;" id="elpzzowsgflia" class="animable"></path><path d="M378.91,205.83a.33.33,0,0,1-.21-.17,2.19,2.19,0,0,0-1.48-1.36A.28.28,0,0,1,377,204a.29.29,0,0,1,.33-.23,2.75,2.75,0,0,1,1.91,1.69.28.28,0,0,1-.16.37h0A.41.41,0,0,1,378.91,205.83Z" style="fill: rgb(26, 46, 53); transform-origin: 378.13px 204.803px;" id="elt68rnzzfw1i" class="animable"></path><path d="M396.46,210.34c-2,6.86-2.67,9.81-7,12.59-6.18,2.44-14.48.27-14.59-7-.11-6.58,3.13-16.67,10.57-18a9.74,9.74,0,0,1,11.26,7.94A9.94,9.94,0,0,1,396.46,210.34Z" style="fill: rgb(255, 181, 115); transform-origin: 385.858px 210.838px;" id="elhnlqorwoadp" class="animable"></path><g id="elk35baiwgd7"><path d="M381.63,223.58l.06-.35a1.29,1.29,0,0,0-1.22-1.51l-3-.14A9.5,9.5,0,0,0,381.63,223.58Z" style="opacity: 0.2; transform-origin: 379.59px 222.58px;" class="animable" id="elc1q9tybr5gt"></path></g><polygon points="381.94 221.78 380.16 232.34 389.14 233.33 389.79 222.14 381.94 221.78" style="fill: rgb(255, 181, 115); transform-origin: 384.975px 227.555px;" id="eli14zr60q8ym" class="animable"></polygon><path d="M378.65,199.64c-1.34-2.21-.68-8.56,8.68-10.24,0,0-4.8,1.87,5.35,5.16s8.52,11.56,8.52,11.56,3.33,6.31-7.91,15.45c-8.07,6.55-7.17-4.14-9.94-9.32s-5.43-4.92-.71-10.24C382.64,202,379.19,200.53,378.65,199.64Z" style="fill: rgb(38, 50, 56); transform-origin: 389.892px 206.516px;" id="el2b7vo0sn4xt" class="animable"></path><path d="M381.46,208.82a5.5,5.5,0,0,0-.4,4.19c.58,1.84,2.5,1.72,3.7.34s2.07-3.71.83-5.14A2.49,2.49,0,0,0,381.46,208.82Z" style="fill: rgb(255, 181, 115); transform-origin: 383.506px 210.878px;" id="elpbyeuyy4hzq" class="animable"></path><polygon points="284.96 391.75 294.41 369.23 303.54 373.64 291 395.01 284.96 391.75" style="fill: rgb(255, 181, 115); transform-origin: 294.25px 382.12px;" id="el8921xvgngix" class="animable"></polygon><path d="M288.17,379.19l10.12,5.8s14.86-23.27,23.87-38.13c3.33-5.48,5-9.91,6.57-11.42,5.89-5.61,37-19.64,46.75-20.11s17.1.39,18.69-19.49l-29-3.19s-46.54,21.51-54.15,35.05S288.17,379.19,288.17,379.19Z" style="fill: #BA68C8; transform-origin: 341.17px 338.82px;" id="el6414k04mp83" class="animable"></path><g id="el85uwrxc7ob"><path d="M288.17,379.19l10.12,5.8s14.86-23.27,23.87-38.13c3.33-5.48,5-9.91,6.57-11.42,5.89-5.61,37-19.64,46.75-20.11s17.1.39,18.69-19.49l-29-3.19s-46.54,21.51-54.15,35.05S288.17,379.19,288.17,379.19Z" style="opacity: 0.1; transform-origin: 341.17px 338.82px;" class="animable" id="el4lp2bfmzgo7"></path></g><path d="M282,389.78c-.88-.37-1.71-.93-1.84-1.43a.68.68,0,0,1,.32-.72,1,1,0,0,1,.7-.16c1.32.18,3.17,2.65,3.25,2.76a.18.18,0,0,1,0,.21.22.22,0,0,1-.2.08A13.36,13.36,0,0,1,282,389.78Zm-.53-1.85a1.33,1.33,0,0,0-.34-.1.55.55,0,0,0-.43.09c-.21.16-.21.28-.19.36.13.6,1.91,1.37,3.29,1.78A8.6,8.6,0,0,0,281.46,387.93Z" style="fill: #BA68C8; transform-origin: 282.305px 388.991px;" id="ell0eg5muzau" class="animable"></path><path d="M284.21,390.5a.09.09,0,0,1-.07,0c-.68-.74-1.72-3-1.22-3.73.1-.18.34-.35.82-.2a1.38,1.38,0,0,1,.81.69c.58,1.12-.06,3.1-.09,3.2a.16.16,0,0,1-.14.11A.12.12,0,0,1,284.21,390.5Zm-.49-3.6-.1,0c-.31-.1-.38,0-.41,0-.25.46.34,2.13,1,3a4.18,4.18,0,0,0,0-2.57,1,1,0,0,0-.48-.46Z" style="fill: #BA68C8; transform-origin: 283.79px 388.541px;" id="elkqkqxsoetm" class="animable"></path><path d="M285.38,389.84l7.69,3.32a.69.69,0,0,1,.4.75l-1.31,6.86a1.13,1.13,0,0,1-1.31.9l-.23-.07c-2.75-1.25-5.15-2.46-8.61-4-4.07-1.76-3.25-.82-8.07-2.82-2.9-1.21-2-4.72-.72-4.35,5.91,1.71,7.22.27,10.24-.8A2.71,2.71,0,0,1,285.38,389.84Z" style="fill: rgb(38, 50, 56); transform-origin: 282.746px 395.615px;" id="elf10p3wgzc9" class="animable"></path><g id="elovis9lw51k"><path d="M311.06,327.7c-1.27,2.27-2.77,5.24-4.37,8.59,5.7-5.72,18.06-15.47,40.7-22.11,25.55-7.49,4.05-8.26-8-8.19C327.29,312.9,314.71,321.21,311.06,327.7Z" style="opacity: 0.2; transform-origin: 333.022px 321.138px;" class="animable" id="elfhapfscuh75"></path></g><polygon points="249.06 385.8 261.97 365.06 270.28 370.87 254.5 389.98 249.06 385.8" style="fill: rgb(255, 181, 115); transform-origin: 259.67px 377.52px;" id="ells88kvy8sx" class="animable"></polygon><path d="M253.59,375.73l9.14,7s20.87-26,36.39-43c5.51-6,8.27-11.14,12.08-13.24,14.54-8,42.17-11.93,56.46-10.76,19.25,1.57,17.62-20.86,17.62-20.86L360,286.16S307.29,300,295.55,312.37,253.59,375.73,253.59,375.73Z" style="fill: #BA68C8; transform-origin: 319.452px 334.445px;" id="elomnvrjkelnm" class="animable"></path><polygon points="251.15 375.76 262.64 385.42 266.73 381.22 254.2 370.53 251.15 375.76" style="fill: #BA68C8; transform-origin: 258.94px 377.975px;" id="elwgxi0v30xs" class="animable"></polygon><g id="eld9jqv4kn7l"><polygon points="251.15 375.76 262.64 385.42 266.73 381.22 254.2 370.53 251.15 375.76" style="fill: rgb(255, 255, 255); opacity: 0.3; transform-origin: 258.94px 377.975px;" class="animable" id="eljip9wva5ras"></polygon></g><path d="M246.44,383.38c-.81-.51-1.55-1.19-1.59-1.7a.67.67,0,0,1,.43-.66.92.92,0,0,1,.71,0c1.28.39,2.71,3.12,2.78,3.24a.2.2,0,0,1,0,.21.2.2,0,0,1-.21,0A13.32,13.32,0,0,1,246.44,383.38Zm-.23-1.91a1,1,0,0,0-.32-.15.52.52,0,0,0-.44,0c-.23.12-.25.24-.24.32,0,.61,1.66,1.66,3,2.28A8.4,8.4,0,0,0,246.21,381.47Z" style="fill: #BA68C8; transform-origin: 246.824px 382.724px;" id="elyapno8u7mba" class="animable"></path><path d="M248.51,384.44a.08.08,0,0,1-.06,0c-.55-.84-1.22-3.23-.61-3.87.12-.17.39-.3.84-.07a1.33,1.33,0,0,1,.69.8c.39,1.21-.55,3.06-.59,3.15a.2.2,0,0,1-.16.1A.19.19,0,0,1,248.51,384.44Zm.09-3.63-.08-.06c-.3-.15-.38-.05-.42,0-.32.41,0,2.16.5,3.15a4.37,4.37,0,0,0,.41-2.54,1,1,0,0,0-.41-.53Z" style="fill: #BA68C8; transform-origin: 248.531px 382.463px;" id="elvslwywb8m5j" class="animable"></path><path d="M249.77,384l7.07,4.5a.67.67,0,0,1,.27.8l-2.38,6.56a1.12,1.12,0,0,1-1.44.68,1,1,0,0,1-.21-.1c-2.52-1.67-4.7-3.25-7.87-5.27-3.75-2.38-3.08-1.33-7.52-4.07-2.68-1.65-1.24-5,0-4.41,5.56,2.63,7.08,1.42,10.24.84A2.67,2.67,0,0,1,249.77,384Z" style="fill: rgb(38, 50, 56); transform-origin: 246.663px 389.614px;" id="el7avzaq6e72h" class="animable"></path><polygon points="285.75 379.93 298.63 387.64 301.99 382.85 287.92 374.28 285.75 379.93" style="fill: #BA68C8; transform-origin: 293.87px 380.96px;" id="el67zr7rbre4d" class="animable"></polygon><g id="elryn50kcujng"><polygon points="285.75 379.93 298.63 387.64 301.99 382.85 287.92 374.28 285.75 379.93" style="fill: rgb(255, 255, 255); opacity: 0.3; transform-origin: 293.87px 380.96px;" class="animable" id="ell79xshql86j"></polygon></g><path d="M357.18,286.57s1.35,9.36,37,9.66c0,0,1.92-24.05,5.89-43.53s9.63-20.47-13.64-21-23.52-4.22-25.93,9S361.92,265.52,357.18,286.57Z" style="fill: #BA68C8; transform-origin: 380.439px 263.529px;" id="elvrjf7gaekbf" class="animable"></path><g id="elihrew2xxy"><path d="M357.18,286.57s1.35,9.36,37,9.66c0,0,1.92-24.05,5.89-43.53s9.63-20.47-13.64-21-23.52-4.22-25.93,9S361.92,265.52,357.18,286.57Z" style="fill: rgb(255, 255, 255); opacity: 0.5; transform-origin: 380.439px 263.529px;" class="animable" id="el1hdwnjejvx8"></path></g><g id="ellctv7mvt4kk"><path d="M362.9,232.68h0c-1.08,1.45-1.62,3.93-2.37,8a63.86,63.86,0,0,0-.89,12.16c8.83-13.29,10-18.28,10-18.28Z" style="opacity: 0.1; transform-origin: 364.632px 242.76px;" class="animable" id="elf4m1gvljvt7"></path></g><path d="M431.35,212l3.68-7.48,3.45-4.06,1.37-3.72a2.27,2.27,0,0,1,3.69-.86l2.19,1.72a2.26,2.26,0,0,1,.42,2.74l-2.29,4.16-5.36,3.63-3.68,6.13Z" style="fill: rgb(255, 181, 115); transform-origin: 438.893px 204.759px;" id="elok1ikpwa6y" class="animable"></path><path d="M327.72,231.5l-6.44-6.85.31-10.27-3.16-3.55a1.85,1.85,0,0,0-2.41-.31l-2.66,1.77a1.85,1.85,0,0,0-.51,2.58l2.3,3.41L316,224l7.91,12Z" style="fill: rgb(255, 181, 115); transform-origin: 320.126px 223.104px;" id="elf4dnedhomm9" class="animable"></path><path d="M367.26,230.57c-3.29.15-10.67,1.82-24.8,10.73l-19.27-17-5.76,5.33s16.21,22.31,23.49,22.74c3.35.19,10.52-3.26,16.76-6.11,6.66-3,12.4-6.95,12.06-13.46A2.36,2.36,0,0,0,367.26,230.57Z" style="fill: #BA68C8; transform-origin: 343.592px 238.339px;" id="elrdkog4lkfuk" class="animable"></path><g id="ellkmqgmvoav"><path d="M367.26,230.57c-3.29.15-10.67,1.82-24.8,10.73l-19.27-17-5.76,5.33s16.21,22.31,23.49,22.74c3.35.19,10.52-3.26,16.76-6.11,6.66-3,12.4-6.95,12.06-13.46A2.36,2.36,0,0,0,367.26,230.57Z" style="fill: rgb(255, 255, 255); opacity: 0.5; transform-origin: 343.592px 238.339px;" class="animable" id="el5n4ak8o2sis"></path></g><path d="M375.05,232.46s.92-4.67,10.17-4.34,5.91,5.3,5.91,5.3Z" style="fill: #BA68C8; transform-origin: 383.384px 230.762px;" id="el9j597dq3j9q" class="animable"></path><g id="eleo5dr176g7"><path d="M375.05,232.46s.92-4.67,10.17-4.34,5.91,5.3,5.91,5.3Z" style="fill: rgb(255, 255, 255); opacity: 0.5; transform-origin: 383.384px 230.762px;" class="animable" id="elb8t7qfl3fze"></path></g><path d="M396,232.1c6.92-1.42,18.56-4.69,22.64-8.61s13.59-17.62,13.59-17.62l6.81,4.26s-11,20.45-15.59,23.86-23.17,9.46-23.17,9.46S385.14,234.34,396,232.1Z" style="fill: #BA68C8; transform-origin: 415.559px 224.66px;" id="el9htv55sezx7" class="animable"></path><g id="elhbg66cxnlwi"><path d="M396,232.1c6.92-1.42,18.56-4.69,22.64-8.61s13.59-17.62,13.59-17.62l6.81,4.26s-11,20.45-15.59,23.86-23.17,9.46-23.17,9.46S385.14,234.34,396,232.1Z" style="fill: rgb(255, 255, 255); opacity: 0.5; transform-origin: 415.559px 224.66px;" class="animable" id="elc5eu7snjq"></path></g><g id="elvqaz3x9au5f"><path d="M379.54,230.63s7.82-1.83,11.3.64Z" style="opacity: 0.1; transform-origin: 385.19px 230.624px;" class="animable" id="el0uiv8qgaxgj"></path></g></g><g id="freepik--Chair--inject-66" class="animable" style="transform-origin: 384.081px 323.35px;"><path d="M405.5,401.35l-27.37-10.08-27.67,10.09a1.46,1.46,0,0,1-2-1.38h0a1.45,1.45,0,0,1,.85-1.32l28.78-13.36,28.5,13.35a1.48,1.48,0,0,1,.84,1.33h0A1.46,1.46,0,0,1,405.5,401.35Z" style="fill: rgb(38, 50, 56); transform-origin: 377.945px 393.382px;" id="eledw00dh2bz4" class="animable"></path><g id="el7rp5dqg57nk"><path d="M405.5,401.35l-27.37-10.08-27.67,10.09a1.46,1.46,0,0,1-2-1.38h0a1.45,1.45,0,0,1,.85-1.32l28.78-13.36,28.5,13.35a1.48,1.48,0,0,1,.84,1.33h0A1.46,1.46,0,0,1,405.5,401.35Z" style="fill: rgb(255, 255, 255); opacity: 0.3; transform-origin: 377.945px 393.382px;" class="animable" id="elp4sbj2czn6k"></path></g><g id="el74ulitl1atf"><polygon points="371.68 393.63 378.13 391.27 384.28 393.54 384.28 388.18 378.13 385.3 371.68 388.29 371.68 393.63" style="opacity: 0.2; transform-origin: 377.98px 389.465px;" class="animable" id="eld38l7e5xnpw"></polygon></g><path d="M378,401.59h0a2.44,2.44,0,0,1-2.42-2.2l-.77-8.12V331.53h6.38v59.74l-.77,8.12A2.43,2.43,0,0,1,378,401.59Z" style="fill: rgb(38, 50, 56); transform-origin: 378px 366.56px;" id="el0056m4rnakq4e" class="animable"></path><g id="elm4kdwfngln"><path d="M378,401.59h0a2.44,2.44,0,0,1-2.42-2.2l-.77-8.12V331.53h6.38v59.74l-.77,8.12A2.43,2.43,0,0,1,378,401.59Z" style="fill: rgb(255, 255, 255); opacity: 0.3; transform-origin: 378px 366.56px;" class="animable" id="elq113r2q1c0s"></path></g><g id="elues2xavsq7"><rect x="374.79" y="337.1" width="6.38" height="20.78" style="opacity: 0.2; transform-origin: 377.98px 347.49px;" class="animable" id="el8yyg1oqum66"></rect></g><path d="M422.38,335.52a65.15,65.15,0,0,0-22.08-4.87c-7.67-.31-36.38,0-43.2,0a64.71,64.71,0,0,0-24.64,4.92c-5.06,2.07-3.5,13.76,1.07,13.89.4,0,87.18,0,87.5,0C425.81,349.75,427.56,337.63,422.38,335.52Z" style="fill: rgb(38, 50, 56); transform-origin: 377.423px 339.989px;" id="eleo29pxcyvy" class="animable"></path><g id="elx93f3lkhpfa"><path d="M422.38,335.52a65.15,65.15,0,0,0-22.08-4.87c-7.67-.31-36.38,0-43.2,0a64.71,64.71,0,0,0-24.64,4.92c-5.06,2.07-3.5,13.76,1.07,13.89.4,0,87.18,0,87.5,0C425.81,349.75,427.56,337.63,422.38,335.52Z" style="opacity: 0.2; transform-origin: 377.423px 339.989px;" class="animable" id="elvrtmn0eed7"></path></g><g id="elq0179va14ri"><g style="opacity: 0.2; transform-origin: 357.106px 340.002px;" class="animable" id="elzmr4v5ay2z"><path d="M334.81,349.16a57.93,57.93,0,0,1,44.59,0c5.52,2.25,7.87-11.39,2.35-13.64a64.1,64.1,0,0,0-49.29,0c-5.51,2.25-3.18,15.9,2.35,13.64Z" style="fill: rgb(255, 255, 255); transform-origin: 357.106px 340.002px;" id="elbnhp6rdtwvh" class="animable"></path></g></g><path d="M399.17,273.19a2.72,2.72,0,0,0-2.44,1.4,94.38,94.38,0,0,0-11.81,65.12,2.39,2.39,0,0,0,2.27,2.12c1.77.12,33.28,0,34.42,0a3.18,3.18,0,0,0,3.2-3.7A88.08,88.08,0,0,1,436,277.57c1.35-2.24-.64-4.34-2.65-4.38C432.47,273.17,401.18,273.23,399.17,273.19Z" style="fill: rgb(38, 50, 56); transform-origin: 409.928px 307.535px;" id="elyga4ktoi0di" class="animable"></path><path d="M351.75,406.18a3.26,3.26,0,1,1-3.25-3.26A3.25,3.25,0,0,1,351.75,406.18Z" style="fill: rgb(38, 50, 56); transform-origin: 348.49px 406.18px;" id="elpgd1acjbcxh" class="animable"></path><path d="M381.24,406.18a3.26,3.26,0,1,1-3.26-3.26A3.26,3.26,0,0,1,381.24,406.18Z" style="fill: rgb(38, 50, 56); transform-origin: 377.98px 406.18px;" id="el5hwgcwtw3jk" class="animable"></path><path d="M410.73,406.18a3.26,3.26,0,1,1-3.26-3.26A3.26,3.26,0,0,1,410.73,406.18Z" style="fill: rgb(38, 50, 56); transform-origin: 407.47px 406.18px;" id="elikiyf6aagg" class="animable"></path><path d="M437.4,237.26c-.44,0-26.56,0-27.53,0a1.32,1.32,0,0,0-1.18.68,45.52,45.52,0,0,0-5.7,31.44,1.16,1.16,0,0,0,1.09,1c.86.06,27.09,0,27.64,0a1.52,1.52,0,0,0,1.54-1.78,42.54,42.54,0,0,1,5.42-29.25A1.42,1.42,0,0,0,437.4,237.26Zm-9.28,15.28-.42,3.22a2.47,2.47,0,0,1-2.46,2.16H413.65a2.47,2.47,0,0,1-2.45-2.79l.41-3.22a2.48,2.48,0,0,1,2.46-2.16h11.59A2.48,2.48,0,0,1,428.12,252.54Z" style="fill: rgb(38, 50, 56); transform-origin: 420.554px 253.833px;" id="ell8bc9gxhq1" class="animable"></path><g id="el0ip5qv1jnt1"><g style="opacity: 0.2; transform-origin: 406.776px 253.864px;" class="animable" id="elb8up9015wo"><path d="M405.73,268.63a42.48,42.48,0,0,1,5.42-29.25,1.43,1.43,0,0,0-2.46-1.44,45.52,45.52,0,0,0-5.7,31.44c.32,1.8,3.07,1,2.74-.75Z" style="fill: rgb(255, 255, 255); transform-origin: 406.776px 253.864px;" id="elcqhajatlsv5" class="animable"></path></g></g><path d="M425.66,249.75h-2a2.47,2.47,0,0,1,2.46,2.79l-.41,3.22a2.47,2.47,0,0,1-2.46,2.16h2a2.47,2.47,0,0,0,2.46-2.16l.42-3.22A2.48,2.48,0,0,0,425.66,249.75Z" style="fill: rgb(38, 50, 56); transform-origin: 425.7px 253.835px;" id="elpql3eid8n0c" class="animable"></path><g id="elu7b9swfhffs"><path d="M425.66,249.75h-2a2.47,2.47,0,0,1,2.46,2.79l-.41,3.22a2.47,2.47,0,0,1-2.46,2.16h2a2.47,2.47,0,0,0,2.46-2.16l.42-3.22A2.48,2.48,0,0,0,425.66,249.75Z" style="fill: rgb(255, 255, 255); opacity: 0.2; transform-origin: 425.7px 253.835px;" class="animable" id="elh5p1nrhlqqg"></path></g><g id="eldqw06ylj28c"><path d="M390.6,338.14a88.08,88.08,0,0,1,11.22-60.57c2-3.26-3.13-6.23-5.09-3a94.38,94.38,0,0,0-11.81,65.12c.68,3.72,6.36,2.15,5.68-1.57Z" style="fill: rgb(255, 255, 255); opacity: 0.2; transform-origin: 392.845px 307.496px;" class="animable" id="el99dmedm1az"></path></g></g><g id="freepik--Controls--inject-66" class="animable" style="transform-origin: 343.632px 191.296px;"><g id="el4u80ds13mk9"><rect x="331.94" y="184.47" width="17.83" height="8.27" style="fill: rgb(38, 50, 56); transform-origin: 340.855px 188.605px; transform: rotate(-45deg);" class="animable" id="elnb9ghx0doi"></rect></g><g id="el0tnhecnwudy"><rect x="331.94" y="184.47" width="17.83" height="8.27" style="fill: rgb(255, 255, 255); opacity: 0.2; transform-origin: 340.855px 188.605px; transform: rotate(-45deg);" class="animable" id="el7jozpg9f86r"></rect></g><path d="M340.55,192.71c.77,2.85.57,11.36-2.28,12.12s-7.28-6.5-8-9.35a5.34,5.34,0,1,1,10.32-2.77Z" style="fill: rgb(38, 50, 56); transform-origin: 335.512px 196.819px;" id="elxs27px5405m" class="animable"></path><path d="M345,188.3c2.85.77,11.35.57,12.12-2.28s-6.5-7.27-9.36-8A5.34,5.34,0,1,0,345,188.3Z" style="fill: rgb(38, 50, 56); transform-origin: 348.897px 183.196px;" id="el3duyifobaoy" class="animable"></path><g id="el7fsdt14fhka"><g style="opacity: 0.5; transform-origin: 343.632px 191.296px;" class="animable" id="elmy22b7qrfj"><g id="elpl53s15s4d"><path d="M340.55,192.71c.77,2.85.57,11.36-2.28,12.12s-7.28-6.5-8-9.35a5.34,5.34,0,1,1,10.32-2.77Z" style="fill: rgb(255, 255, 255); opacity: 0.7; transform-origin: 335.512px 196.819px;" class="animable" id="elvo113t0uso8"></path></g><g id="elghntyop2v2h"><path d="M345,188.3c2.85.77,11.35.57,12.12-2.28s-6.5-7.27-9.36-8A5.34,5.34,0,1,0,345,188.3Z" style="fill: rgb(255, 255, 255); opacity: 0.7; transform-origin: 348.897px 183.196px;" class="animable" id="elyp02ucorfbt"></path></g></g></g><path d="M335.38,192.17l-.67.67-.66-.67a.6.6,0,0,0-.84,0l-.38.39a.59.59,0,0,0,0,.83l.66.67-.66.66a.6.6,0,0,0,0,.84l.38.39a.6.6,0,0,0,.84,0l.66-.67.67.67a.59.59,0,0,0,.83,0l.39-.39a.6.6,0,0,0,0-.84l-.67-.66.67-.67a.59.59,0,0,0,0-.83l-.39-.39A.59.59,0,0,0,335.38,192.17Z" style="fill: #BA68C8; transform-origin: 334.715px 194.06px;" id="eluijxt11yau" class="animable"></path><g id="elzn5gokicuq"><path d="M335.38,192.17l-.67.67-.66-.67a.6.6,0,0,0-.84,0l-.38.39a.59.59,0,0,0,0,.83l.66.67-.66.66a.6.6,0,0,0,0,.84l.38.39a.6.6,0,0,0,.84,0l.66-.67.67.67a.59.59,0,0,0,.83,0l.39-.39a.6.6,0,0,0,0-.84l-.67-.66.67-.67a.59.59,0,0,0,0-.83l-.39-.39A.59.59,0,0,0,335.38,192.17Z" style="fill: rgb(255, 255, 255); opacity: 0.7; transform-origin: 334.715px 194.06px;" class="animable" id="elvg35czi1nu8"></path></g><path d="M347,180.56l-.66.66-.67-.66a.59.59,0,0,0-.83,0l-.39.38a.6.6,0,0,0,0,.84l.67.66-.67.67a.59.59,0,0,0,0,.83l.39.39a.59.59,0,0,0,.83,0l.67-.66.66.66a.6.6,0,0,0,.84,0l.38-.39a.59.59,0,0,0,0-.83l-.66-.67.66-.66a.6.6,0,0,0,0-.84l-.38-.38A.6.6,0,0,0,347,180.56Z" style="fill: #BA68C8; transform-origin: 346.335px 182.445px;" id="elgb17y9eww6" class="animable"></path><g id="eln3zh64n57l"><path d="M347,180.56l-.66.66-.67-.66a.59.59,0,0,0-.83,0l-.39.38a.6.6,0,0,0,0,.84l.67.66-.67.67a.59.59,0,0,0,0,.83l.39.39a.59.59,0,0,0,.83,0l.67-.66.66.66a.6.6,0,0,0,.84,0l.38-.39a.59.59,0,0,0,0-.83l-.66-.67.66-.66a.6.6,0,0,0,0-.84l-.38-.38A.6.6,0,0,0,347,180.56Z" style="fill: rgb(255, 255, 255); opacity: 0.7; transform-origin: 346.335px 182.445px;" class="animable" id="elbfu7hod7i9"></path></g><path d="M342.33,191.15l-.69.69a.28.28,0,0,1-.4,0h0a.28.28,0,0,1,0-.4l.69-.69a.28.28,0,0,1,.4,0h0A.28.28,0,0,1,342.33,191.15Z" style="fill: #BA68C8; transform-origin: 341.785px 191.295px;" id="elotmvj6mkqi" class="animable"></path><path d="M343.88,189.59l-.69.69a.28.28,0,0,1-.4,0h0a.28.28,0,0,1,0-.4l.69-.69a.28.28,0,0,1,.4,0h0A.28.28,0,0,1,343.88,189.59Z" style="fill: #BA68C8; transform-origin: 343.335px 189.735px;" id="elib1qo19xc2i" class="animable"></path><g id="elo87xvgc587"><g style="opacity: 0.7; transform-origin: 342.56px 190.515px;" class="animable" id="elpmbzufbdg4l"><path d="M342.33,191.15l-.69.69a.28.28,0,0,1-.4,0h0a.28.28,0,0,1,0-.4l.69-.69a.28.28,0,0,1,.4,0h0A.28.28,0,0,1,342.33,191.15Z" style="fill: rgb(255, 255, 255); transform-origin: 341.785px 191.295px;" id="elhyc0mmf136r" class="animable"></path><path d="M343.88,189.59l-.69.69a.28.28,0,0,1-.4,0h0a.28.28,0,0,1,0-.4l.69-.69a.28.28,0,0,1,.4,0h0A.28.28,0,0,1,343.88,189.59Z" style="fill: rgb(255, 255, 255); transform-origin: 343.335px 189.735px;" id="el6pvnrbpzl85" class="animable"></path></g></g></g><defs>     <filter id="active" height="200%">         <feMorphology in="SourceAlpha" result="DILATED" operator="dilate" radius="2"></feMorphology>                <feFlood flood-color="#32DFEC" flood-opacity="1" result="PINK"></feFlood>        <feComposite in="PINK" in2="DILATED" operator="in" result="OUTLINE"></feComposite>        <feMerge>            <feMergeNode in="OUTLINE"></feMergeNode>            <feMergeNode in="SourceGraphic"></feMergeNode>        </feMerge>    </filter>    <filter id="hover" height="200%">        <feMorphology in="SourceAlpha" result="DILATED" operator="dilate" radius="2"></feMorphology>                <feFlood flood-color="#ff0000" flood-opacity="0.5" result="PINK"></feFlood>        <feComposite in="PINK" in2="DILATED" operator="in" result="OUTLINE"></feComposite>        <feMerge>            <feMergeNode in="OUTLINE"></feMergeNode>            <feMergeNode in="SourceGraphic"></feMergeNode>        </feMerge>            <feColorMatrix type="matrix" values="0   0   0   0   0                0   1   0   0   0                0   0   0   0   0                0   0   0   1   0 "></feColorMatrix>    </filter></defs></svg>